G04 EasyPC Gerber Version 20.0.2 Build 4112 *
G04 #@! TF.Part,Single*
G04 #@! TF.FileFunction,Copper,L2,Bot *
%FSLAX35Y35*%
%MOIN*%
G04 #@! TA.AperFunction,ComponentPad*
%ADD12R,0.05512X0.07874*%
%AMT12*0 Rounded Rectangle Pad at angle 0*4,1,8,-0.02756,-0.03937,0.02756,-0.03937,0.02756,-0.03937,0.02756,0.03937,0.02756,0.03937,-0.02756,0.03937,-0.02756,0.03937,-0.02756,-0.03937,-0.02756,-0.03937,0*%
%ADD12T12*%
%ADD80R,0.06000X0.08000*%
%ADD19R,0.08858X0.08858*%
%ADD14R,0.09000X0.09000*%
G04 #@! TD.AperFunction*
%ADD11C,0.01000*%
%ADD10C,0.01200*%
%ADD83C,0.02000*%
G04 #@! TA.AperFunction,ViaPad*
%ADD71C,0.04000*%
G04 #@! TA.AperFunction,ComponentPad*
%ADD13C,0.06000*%
%ADD79C,0.07000*%
%ADD135C,0.08000*%
%ADD18C,0.08268*%
%ADD70C,0.08858*%
%ADD15C,0.09000*%
%ADD16C,0.09449*%
%ADD17C,0.12500*%
G04 #@! TA.AperFunction,WasherPad*
%ADD139C,0.13000*%
X0Y0D02*
D02*
D10*
X380600Y187750D02*
X330600D01*
X325600Y197750*
X325045*
G75*
G02X321605Y195250I-4445J2500*
G01*
G75*
G02Y185250I-1005J-5000*
G01*
G75*
G02X325700Y180250I-1005J-5000*
G01*
G75*
G02X315500I-5100*
G01*
G75*
G02X319595Y185250I5100*
G01*
G75*
G02Y195250I1005J5000*
G01*
G75*
G02X316155Y197750I1005J5000*
G01*
X315600*
X310600Y185250*
X213100*
X210600Y187750*
Y192750*
X203580Y199770*
G75*
G02X204200Y197750I-2980J-2020*
G01*
G75*
G02X197000I-3600*
G01*
G75*
G02X202620Y200730I3600*
G01*
X198100Y205250*
X178100*
Y204850*
G75*
G02X182700Y200250J-4600*
G01*
G75*
G02X178100Y195650I-4600*
G01*
Y190250*
X198100*
X208100Y180250*
Y175250*
X208847Y174503*
G75*
G02X214853Y168497I1753J-4253*
G01*
X215600Y167750*
X219239*
G75*
G02X218500Y170250I3861J2500*
G01*
G75*
G02X227700I4600*
G01*
G75*
G02X226961Y167750I-4600*
G01*
X231739*
G75*
G02X231000Y170250I3861J2500*
G01*
G75*
G02X240200I4600*
G01*
G75*
G02X239461Y167750I-4600*
G01*
X249239*
G75*
G02X248500Y170250I3861J2500*
G01*
G75*
G02X257700I4600*
G01*
G75*
G02X256961Y167750I-4600*
G01*
X274239*
G75*
G02X273500Y170250I3861J2500*
G01*
G75*
G02X282700I4600*
G01*
G75*
G02X281961Y167750I-4600*
G01*
X286739*
G75*
G02X286000Y170250I3861J2500*
G01*
G75*
G02X295200I4600*
G01*
G75*
G02X294461Y167750I-4600*
G01*
X299239*
G75*
G02X298500Y170250I3861J2500*
G01*
G75*
G02X307700I4600*
G01*
G75*
G02X306961Y167750I-4600*
G01*
X334239*
G75*
G02X333500Y170250I3861J2500*
G01*
G75*
G02X342662Y170843I4600*
G01*
X345600Y175250*
X355600*
X360600Y165250*
X380600*
Y174686*
G75*
G02X372000Y180250I-2500J5564*
G01*
G75*
G02X380600Y185814I6100*
G01*
Y187750*
X261000Y177750D02*
G75*
G02X270200I4600D01*
G01*
G75*
G02X261000I-4600*
G01*
X372536D02*
G36*
X325045D01*
G75*
G02X316155I-4445J2500*
G01*
X270200*
G75*
G02X261000I-4600*
G01*
X208100*
Y175250*
X208847Y174503*
G75*
G02X215200Y170250I1753J-4252*
G01*
G75*
G02X214853Y168497I-4600*
G01*
X215600Y167750*
X219239*
G75*
G02X218500Y170250I3863J2500*
G01*
G75*
G02X227700I4600*
G01*
G75*
G02X226961Y167750I-4601J0*
G01*
X231739*
G75*
G02X231000Y170250I3863J2500*
G01*
G75*
G02X240200I4600*
G01*
G75*
G02X239461Y167750I-4601J0*
G01*
X249239*
G75*
G02X248500Y170250I3863J2500*
G01*
G75*
G02X257700I4600*
G01*
G75*
G02X256961Y167750I-4601J0*
G01*
X274239*
G75*
G02X273500Y170250I3863J2500*
G01*
G75*
G02X282700I4600*
G01*
G75*
G02X281961Y167750I-4601J0*
G01*
X286739*
G75*
G02X286000Y170250I3863J2500*
G01*
G75*
G02X295200I4600*
G01*
G75*
G02X294461Y167750I-4601J0*
G01*
X299239*
G75*
G02X298500Y170250I3863J2500*
G01*
G75*
G02X307700I4600*
G01*
G75*
G02X306961Y167750I-4601J0*
G01*
X334239*
G75*
G02X333500Y170250I3863J2500*
G01*
G75*
G02X342662Y170843I4600*
G01*
X345600Y175250*
X355600*
X360300Y165850*
X380000*
Y174454*
G75*
G02X372536Y177750I-1900J5796*
G01*
G37*
X198700Y204650D02*
G36*
X179442D01*
G75*
G02X182700Y200250I-1341J-4400*
G01*
Y200250*
Y200250*
G75*
G02X178700Y195689I-4600*
G01*
Y190250*
X198100*
X208100Y180250*
Y177750*
X261000*
G75*
G02X270200I4600*
G01*
X316155*
G75*
G02X315500Y180250I4445J2500*
G01*
Y180250*
G75*
G02X319595Y185250I5100*
G01*
G75*
G02X315500Y190250I1005J5000*
G01*
G75*
G02X319595Y195250I5100*
G01*
G75*
G02X316155Y197750I1006J5002*
G01*
X315600*
X310600Y185250*
X213100*
X210600Y187750*
Y192750*
X203580Y199770*
G75*
G02X204200Y197750I-2981J-2021*
G01*
G75*
G02X197000I-3600*
G01*
G75*
G02X202620Y200730I3600*
G01*
X198700Y204650*
G37*
X380000Y187750D02*
G36*
X330600D01*
X325600Y197750*
X325045*
G75*
G02X321605Y195250I-4445J2500*
G01*
G75*
G02X325700Y190250I-1005J-5000*
G01*
G75*
G02X321605Y185250I-5100*
G01*
G75*
G02X325700Y180250I-1005J-5000*
G01*
Y180250*
G75*
G02X325045Y177750I-5100*
G01*
X372536*
G75*
G02X372000Y180250I5564J2500*
G01*
Y180250*
G75*
G02X380000Y186046I6100*
G01*
Y187750*
G37*
X390600Y174686D02*
G75*
G02X384606Y175250I-2500J5564D01*
G01*
X383100*
Y162750*
X358100*
X355081Y168787*
G75*
G02X355200Y167750I-4481J-1037*
G01*
G75*
G02X346000I-4600*
G01*
G75*
G02X354119Y170713I4600*
G01*
X353100Y172750*
X348100*
X343100Y165250*
X210600*
Y165650*
G75*
G02X206739Y172750J4600*
G01*
X205600*
Y177750*
X199853Y183497*
G75*
G02X191000Y185250I-4253J1753*
G01*
X190600*
Y165250*
X196019Y159831*
G75*
G02X196000Y160250I4583J421*
G01*
G75*
G02X200600Y164850I4600*
G01*
G75*
G02X205200Y160250J-4600*
G01*
G75*
G02X200600Y155650I-4600*
G01*
G75*
G02X200181Y155669I2J4602*
G01*
X203100Y152750*
X214239*
G75*
G02X221961I3861J-2500*
G01*
X229239*
G75*
G02X236961I3861J-2500*
G01*
X248009*
G75*
G02X253191I2591J-2500*
G01*
X325600*
X333100Y145250*
X353100*
X358519Y139831*
G75*
G02X358500Y140250I4583J421*
G01*
G75*
G02X367700I4600*
G01*
G75*
G02X362681Y135669I-4600*
G01*
X365600Y132750*
X370600*
X386019Y148169*
G75*
G02X390181Y152331I4581J-419*
G01*
X390600Y152750*
Y174686*
X358500Y155250D02*
G75*
G02X367700I4600D01*
G01*
G75*
G02X358500I-4600*
G01*
X349500Y152750D02*
G75*
G02X356700I3600D01*
G01*
G75*
G02X349500I-3600*
G01*
X222000Y160250D02*
G75*
G02X229200I3600D01*
G01*
G75*
G02X222000I-3600*
G01*
X258100Y164850D02*
G75*
G02X262700Y160250J-4600D01*
G01*
G75*
G02X258100Y155650I-4600*
G01*
G75*
G02X253500Y160250J4600*
G01*
G75*
G02X258100Y164850I4600*
G01*
X298100D02*
G75*
G02X302700Y160250J-4600D01*
G01*
G75*
G02X298100Y155650I-4600*
G01*
G75*
G02X293500Y160250J4600*
G01*
G75*
G02X298100Y164850I4600*
G01*
X316000Y157750D02*
G75*
G02X325200I4600D01*
G01*
G75*
G02X316000I-4600*
G01*
X200600Y177350D02*
G75*
G02Y168150J-4600D01*
G01*
G75*
G02X196000Y172750J4600*
G01*
G75*
G02X200600Y177350I4600*
G01*
X390000Y152311D02*
G36*
Y155250D01*
X367700*
G75*
G02X358500I-4600*
G01*
X355691*
G75*
G02X356700Y152750I-2591J-2500*
G01*
G75*
G02X349500I-3600*
G01*
G75*
G02X350509Y155250I3600J0*
G01*
X324461*
G75*
G02X316739I-3861J2500*
G01*
X200600*
X203100Y152750*
X214239*
G75*
G02X221961I3861J-2500*
G01*
X229239*
G75*
G02X236961I3861J-2500*
G01*
X248009*
G75*
G02X253191I2591J-2500*
G01*
X325600*
X333100Y145250*
X353100*
X358519Y139831*
G75*
G02X358500Y140246I4455J415*
G01*
G75*
G02Y140250I4595J2*
G01*
G75*
G02X367700I4600*
G01*
G75*
G02X362681Y135669I-4600J0*
G01*
X365000Y133350*
X371200*
X386019Y148169*
G75*
G02X390000Y152311I4580J-419*
G01*
G37*
X196000Y160250D02*
G36*
X195600D01*
X196019Y159831*
G75*
G02X196000Y160246I4455J415*
G01*
G75*
G02Y160250I4595J2*
G01*
G37*
X316739D02*
G36*
X302700D01*
Y160250*
G75*
G02X298100Y155650I-4600*
G01*
G75*
G02X293500Y160250J4600*
G01*
Y160250*
X262700*
Y160250*
G75*
G02X258100Y155650I-4600*
G01*
G75*
G02X253500Y160250J4600*
G01*
Y160250*
X229200*
G75*
G02X222000I-3600*
G01*
X205200*
Y160250*
G75*
G02X200600Y155650I-4600*
G01*
G75*
G02X200181Y155669I-4J4474*
G01*
X200600Y155250*
X316739*
G75*
G02X316000Y157750I3861J2500*
G01*
G75*
G02X316739Y160250I4600*
G01*
G37*
X324461D02*
G36*
G75*
G02X325200Y157750I-3861J-2500D01*
G01*
G75*
G02X324461Y155250I-4600*
G01*
X350509*
G75*
G02X355691I2591J-2500*
G01*
X358500*
G75*
G02X367700I4600*
G01*
X390000*
Y160250*
X324461*
G37*
X383100Y172750D02*
G36*
Y162750D01*
X358100*
X355081Y168787*
G75*
G02X355200Y167750I-4506J-1040*
G01*
G75*
G02X346000I-4600*
G01*
G75*
G02X354119Y170713I4600*
G01*
X353100Y172750*
X348100*
X343100Y165250*
X210600*
Y165650*
G75*
G02X206000Y170250J4600*
G01*
G75*
G02X206739Y172750I4601*
G01*
X205600*
X205200*
G75*
G02X200600Y168150I-4600*
G01*
G75*
G02X196000Y172750J4600*
G01*
Y172750*
X191200*
Y164650*
X195600Y160250*
X196000*
Y160250*
G75*
G02X200600Y164850I4600*
G01*
G75*
G02X205200Y160250J-4600*
G01*
Y160250*
X222000*
G75*
G02X229200I3600*
G01*
X253500*
Y160250*
G75*
G02X258100Y164850I4600*
G01*
G75*
G02X262700Y160250J-4600*
G01*
Y160250*
X293500*
Y160250*
G75*
G02X298100Y164850I4600*
G01*
G75*
G02X302700Y160250J-4600*
G01*
Y160250*
X316739*
G75*
G02X324461I3861J-2500*
G01*
X390000*
Y172750*
X383100*
G37*
X205600D02*
G36*
Y177750D01*
X199853Y183497*
G75*
G02X191200Y183909I-4253J1753*
G01*
Y172750*
X196000*
Y172750*
G75*
G02X200600Y177350I4600*
G01*
G75*
G02X205200Y172750J-4600*
G01*
X205600*
G37*
X390000Y174454D02*
G36*
G75*
G02X384606Y175250I-1900J5796D01*
G01*
X383100*
Y172750*
X390000*
Y174454*
G37*
X475900Y54934D02*
Y300550D01*
X438491*
G75*
G02X435580Y288611I-2910J-5615*
G01*
G75*
G02X432670Y300550J6324*
G01*
X242863*
G75*
G02X244200Y297750I-2263J-2800*
G01*
G75*
G02X237000I-3600*
G01*
G75*
G02X238337Y300550I3600*
G01*
X150363*
G75*
G02X151700Y297750I-2263J-2800*
G01*
G75*
G02X144500I-3600*
G01*
G75*
G02X145837Y300550I3600*
G01*
X82863*
G75*
G02X84200Y297750I-2263J-2800*
G01*
G75*
G02X77000I-3600*
G01*
G75*
G02X78337Y300550I3600*
G01*
X52784*
G75*
G02X58700Y292750I-2184J-7800*
G01*
G75*
G02X42800Y290566I-8100*
G01*
Y230013*
G75*
G02X49200Y227750I2800J-2263*
G01*
G75*
G02X42800Y225487I-3600*
G01*
Y162513*
G75*
G02X49200Y160250I2800J-2263*
G01*
G75*
G02X42800Y157987I-3600*
G01*
Y54934*
G75*
G02X58700Y52750I7800J-2184*
G01*
G75*
G02X52784Y44950I-8100*
G01*
X220837*
G75*
G02X219500Y47750I2263J2800*
G01*
G75*
G02X226700I3600*
G01*
G75*
G02X225363Y44950I-3600*
G01*
X390837*
G75*
G02X389500Y47750I2263J2800*
G01*
G75*
G02X396700I3600*
G01*
G75*
G02X395363Y44950I-3600*
G01*
X465916*
G75*
G02X460000Y52750I2184J7800*
G01*
G75*
G02X475900Y54934I8100*
G01*
X454500Y225250D02*
G75*
G02X461700I3600D01*
G01*
G75*
G02X454500I-3600*
G01*
X457000Y282750D02*
G75*
G02X464200I3600D01*
G01*
G75*
G02X457000I-3600*
G01*
X457072Y253656D02*
X469128D01*
Y241596*
X457072*
Y253656*
X441461Y275250D02*
G75*
G02X454109I6324D01*
G01*
G75*
G02X441461I-6324*
G01*
X452000Y185250D02*
G75*
G02X459200I3600D01*
G01*
G75*
G02X452000I-3600*
G01*
X456028Y133872D02*
G75*
G02X467495I5734D01*
G01*
G75*
G02X456028I-5734*
G01*
X457000Y82750D02*
G75*
G02X464200I3600D01*
G01*
G75*
G02X457000I-3600*
G01*
X457071Y176800D02*
G75*
G02X469129I6029D01*
G01*
G75*
G02X457071I-6029*
G01*
X435000Y237750D02*
G75*
G02X451200I8100D01*
G01*
G75*
G02X435000I-8100*
G01*
X436000Y155250D02*
G75*
G02X445200I4600D01*
G01*
G75*
G02X436000I-4600*
G01*
Y185250D02*
G75*
G02X445200I4600D01*
G01*
G75*
G02X436000I-4600*
G01*
X449500Y122750D02*
G75*
G02X456700I3600D01*
G01*
G75*
G02X449500I-3600*
G01*
X456028Y69974D02*
G75*
G02X467495I5734D01*
G01*
G75*
G02X456028I-5734*
G01*
X248500Y210250D02*
G75*
G02X257700I4600D01*
G01*
G75*
G02X248500I-4600*
G01*
X281911Y235807D02*
G75*
G02X282850Y234869J-938D01*
G01*
Y225671*
G75*
G02X281911Y224733I-938*
G01*
X275076*
G75*
G02X274557Y224889I0J938*
G01*
G75*
G02X274037Y224733I-519J781*
G01*
X267202*
G75*
G02X266683Y224889I0J938*
G01*
G75*
G02X266163Y224733I-519J781*
G01*
X259328*
G75*
G02X258809Y224889I0J938*
G01*
G75*
G02X258289Y224733I-519J781*
G01*
X251454*
G75*
G02X250516Y225671J938*
G01*
Y234869*
G75*
G02X251454Y235807I938*
G01*
X258289*
G75*
G02X258809Y235650I0J-938*
G01*
G75*
G02X259328Y235807I519J-781*
G01*
X266163*
G75*
G02X266683Y235650I0J-938*
G01*
G75*
G02X267202Y235807I519J-781*
G01*
X274037*
G75*
G02X274557Y235650I0J-938*
G01*
G75*
G02X275076Y235807I519J-781*
G01*
X281911*
X273500Y210250D02*
G75*
G02X282700I4600D01*
G01*
G75*
G02X273500I-4600*
G01*
X261000Y207750D02*
G75*
G02X270200I4600D01*
G01*
G75*
G02X261000I-4600*
G01*
X262000Y192750D02*
G75*
G02X269200I3600D01*
G01*
G75*
G02X262000I-3600*
G01*
X279500Y287750D02*
G75*
G02X286700I3600D01*
G01*
G75*
G02X279500I-3600*
G01*
X284500Y227750D02*
G75*
G02X291700I3600D01*
G01*
G75*
G02X284500I-3600*
G01*
X286000Y210250D02*
G75*
G02X295200I4600D01*
G01*
G75*
G02X286000I-4600*
G01*
X292000Y250250D02*
G75*
G02X299200I3600D01*
G01*
G75*
G02X292000I-3600*
G01*
X298500Y210250D02*
G75*
G02X307700I4600D01*
G01*
G75*
G02X298500I-4600*
G01*
X299500Y260250D02*
G75*
G02X306700I3600D01*
G01*
G75*
G02X299500I-3600*
G01*
X313407Y235787D02*
G75*
G02X314346Y234849J-938D01*
G01*
Y225651*
G75*
G02X313407Y224713I-938*
G01*
X306572*
G75*
G02X305634Y225651J938*
G01*
Y234849*
G75*
G02X306572Y235787I938*
G01*
X313407*
X299500Y282750D02*
G75*
G02X306700I3600D01*
G01*
G75*
G02X299500I-3600*
G01*
X392002Y186348D02*
X404198D01*
Y174152*
X392800*
Y172513*
G75*
G02X399200Y170250I2800J-2263*
G01*
G75*
G02X392800Y167987I-3600*
G01*
Y152750*
G75*
G02X392622Y151882I-2200J0*
G01*
G75*
G02X390600Y143150I-2022J-4132*
G01*
G75*
G02X386543Y145581J4600*
G01*
X372156Y131194*
G75*
G02X370599Y130550I-1556J1556*
G01*
X365601*
G75*
G02X364044Y131194I-1J2200*
G01*
X361125Y134113*
G75*
G02X360601Y136388I1557J1556*
G01*
G75*
G02X359238Y137751I2499J3862*
G01*
G75*
G02X356959Y138280I-719J2080*
G01*
X352189Y143050*
X333101*
G75*
G02X331544Y143694I-1J2200*
G01*
X324689Y150550*
X312863*
G75*
G02X314200Y147750I-2263J-2800*
G01*
G75*
G02X307000I-3600*
G01*
G75*
G02X308337Y150550I3600*
G01*
X301750*
G75*
G02X298100Y143150I-3650J-2800*
G01*
G75*
G02X294450Y150550J4600*
G01*
X271750*
G75*
G02X268100Y143150I-3650J-2800*
G01*
G75*
G02X264450Y150550J4600*
G01*
X254187*
G75*
G02X254200Y150250I-3588J-301*
G01*
G75*
G02X247000I-3600*
G01*
G75*
G02X247013Y150550I3601J-1*
G01*
X237690*
G75*
G02X237700Y150250I-4591J-301*
G01*
G75*
G02X233100Y145650I-4600*
G01*
G75*
G02X228500Y150250J4600*
G01*
G75*
G02X228510Y150550I4600J-1*
G01*
X222690*
G75*
G02X222700Y150250I-4591J-301*
G01*
G75*
G02X218100Y145650I-4600*
G01*
G75*
G02X213500Y150250J4600*
G01*
G75*
G02X213510Y150550I4600J-1*
G01*
X204250*
G75*
G02X200600Y143150I-3650J-2800*
G01*
G75*
G02X200393Y152345J4600*
G01*
X199044Y153694*
G75*
G02X199041Y153698I1584J1588*
G01*
X198625Y154113*
G75*
G02X198101Y156388I1557J1556*
G01*
G75*
G02X196738Y157751I2499J3862*
G01*
G75*
G02X194457Y158281I-719J2080*
G01*
X194048Y158690*
G75*
G02X194043Y158696I1642J1648*
G01*
X189044Y163694*
G75*
G02X188400Y165250I1556J1556*
G01*
Y185250*
G75*
G02X190600Y187450I2200*
G01*
X191000*
G75*
G02X191526Y187387I0J-2201*
G01*
G75*
G02X191950Y188050I4074J-2137*
G01*
X178100*
G75*
G02X175900Y190250J2200*
G01*
Y195650*
G75*
G02X175964Y196176I2200*
G01*
G75*
G02X174007Y198150I2137J4074*
G01*
X171470*
X162700Y189380*
Y188821*
G75*
G02X170200Y185250I2900J-3571*
G01*
G75*
G02X162700Y181679I-4600*
G01*
Y180250*
G75*
G02X162085Y178765I-2100*
G01*
X160669Y177350*
G75*
G02X160600Y168150I-69J-4600*
G01*
G75*
G02X156700Y170311J4600*
G01*
G75*
G02X156700Y170250I-3591J-54*
G01*
G75*
G02X155200Y167326I-3600*
G01*
Y151120*
X156470Y149850*
X156507*
G75*
G02X165200Y147750I4093J-2100*
G01*
G75*
G02X156507Y145650I-4600*
G01*
X155602*
G75*
G02X154115Y146265I-3J2100*
G01*
X151615Y148765*
G75*
G02X151535Y148850I1486J1484*
G01*
G75*
G02X151000Y150250I1565J1400*
G01*
Y167326*
G75*
G02X151051Y173210I2100J2924*
G01*
G75*
G02X151511Y174123I2049J-459*
G01*
G75*
G02X151615Y174235I1590J-1374*
G01*
X158500Y181120*
Y190250*
G75*
G02X159115Y191735I2100*
G01*
X169115Y201735*
G75*
G02X170602Y202350I1485J-1485*
G01*
X174007*
G75*
G02X175964Y204324I4093J-2100*
G01*
G75*
G02X175900Y204850I2136J526*
G01*
Y205250*
G75*
G02X178100Y207450I2200*
G01*
X198100*
G75*
G02X199657Y206804J-2200*
G01*
X204172Y202290*
G75*
G02X204580Y201730I-1551J-1560*
G01*
G75*
G02X205135Y201326I-1001J-1959*
G01*
X212154Y194307*
G75*
G02X212800Y192750I-1554J-1557*
G01*
Y188661*
X214011Y187450*
X309111*
X313557Y198567*
G75*
G02X315509Y199948I2043J-817*
G01*
G75*
G02X315500Y200250I5093J304*
G01*
G75*
G02X325700I5100*
G01*
G75*
G02X325691Y199948I-5102J2*
G01*
G75*
G02X327568Y198734I-91J-2198*
G01*
X331960Y189950*
X380600*
G75*
G02X382800Y187750J-2200*
G01*
Y185834*
G75*
G02Y185815I-2047J-9*
G01*
G75*
G02Y185814I-1961J0*
G01*
G75*
G02X382411Y184565I-2200J0*
G01*
G75*
G02X383100Y183744I-4312J-4315*
G01*
G75*
G02X392002Y184939I5000J-3494*
G01*
Y186348*
X397000Y60250D02*
G75*
G02X404200I3600D01*
G01*
G75*
G02X397000I-3600*
G01*
Y100250D02*
G75*
G02X404200I3600D01*
G01*
G75*
G02X397000I-3600*
G01*
Y160250D02*
G75*
G02X404200I3600D01*
G01*
G75*
G02X397000I-3600*
G01*
X374500Y130250D02*
G75*
G02X381700I3600D01*
G01*
G75*
G02X374500I-3600*
G01*
X371000Y112750D02*
G75*
G02X380200I4600D01*
G01*
G75*
G02X371000I-4600*
G01*
X372000Y92750D02*
G75*
G02X379200I3600D01*
G01*
G75*
G02X372000I-3600*
G01*
X352500Y100250D02*
G75*
G02X363700I5600D01*
G01*
G75*
G02X352500I-5600*
G01*
Y120250D02*
G75*
G02X363700I5600D01*
G01*
G75*
G02X352500I-5600*
G01*
X324963Y141293D02*
G75*
G02X329200Y137750I637J-3543D01*
G01*
G75*
G02X322000I-3600*
G01*
G75*
G02X322057Y138387I3600J0*
G01*
G75*
G02X316000Y142750I-1457J4363*
G01*
G75*
G02X325200I4600*
G01*
G75*
G02X324963Y141293I-4600J0*
G01*
X327000Y112750D02*
G75*
G02X334200I3600D01*
G01*
G75*
G02X327000I-3600*
G01*
X309500Y132750D02*
G75*
G02X316700I3600D01*
G01*
G75*
G02X309500I-3600*
G01*
X312500Y110250D02*
G75*
G02X323700I5600D01*
G01*
G75*
G02X312500I-5600*
G01*
X294500Y50250D02*
G75*
G02X301700I3600D01*
G01*
G75*
G02X294500I-3600*
G01*
Y110250D02*
G75*
G02X301700I3600D01*
G01*
G75*
G02X294500I-3600*
G01*
X297500Y100250D02*
G75*
G02X308700I5600D01*
G01*
G75*
G02X297500I-5600*
G01*
X307000Y87750D02*
G75*
G02X314200I3600D01*
G01*
G75*
G02X307000I-3600*
G01*
X374191Y77129D02*
G75*
G02X380200Y72750I1409J-4379D01*
G01*
G75*
G02X371000I-4600*
G01*
G75*
G02X371221Y74159I4600J0*
G01*
X364730Y80650*
X358102*
G75*
G02X356615Y81265I-3J2100*
G01*
X354730Y83150*
X318970*
X312700Y76880*
Y67814*
G75*
G02X318450Y60250I-2100J-7564*
G01*
G75*
G02X302750I-7850*
G01*
G75*
G02X308500Y67814I7850*
G01*
Y77750*
G75*
G02X309115Y79235I2100*
G01*
X316615Y86735*
G75*
G02X318102Y87350I1485J-1485*
G01*
X355598*
G75*
G02X357085Y86735I3J-2100*
G01*
X358970Y84850*
X365598*
G75*
G02X367085Y84235I3J-2100*
G01*
X374191Y77129*
X342750Y60250D02*
G75*
G02X358450I7850D01*
G01*
G75*
G02X342750I-7850*
G01*
X317000Y75250D02*
G75*
G02X324200I3600D01*
G01*
G75*
G02X317000I-3600*
G01*
X322750Y60250D02*
G75*
G02X338450I7850D01*
G01*
G75*
G02X322750I-7850*
G01*
X297500Y120250D02*
G75*
G02X308700I5600D01*
G01*
G75*
G02X297500I-5600*
G01*
X279500Y107750D02*
G75*
G02X286700I3600D01*
G01*
G75*
G02X279500I-3600*
G01*
X287243Y142047D02*
G75*
G02X285600Y133150I-1643J-4297D01*
G01*
G75*
G02X283957Y142047J4600*
G01*
G75*
G02X282000Y145250I1643J3203*
G01*
G75*
G02X289200I3600*
G01*
G75*
G02X287243Y142047I-3600*
G01*
X287000Y67750D02*
G75*
G02X294200I3600D01*
G01*
G75*
G02X287000I-3600*
G01*
X272000Y125250D02*
G75*
G02X279200I3600D01*
G01*
G75*
G02X272000I-3600*
G01*
X257000Y122750D02*
G75*
G02X264200I3600D01*
G01*
G75*
G02X257000I-3600*
G01*
X257500Y110250D02*
G75*
G02X268700I5600D01*
G01*
G75*
G02X257500I-5600*
G01*
X265250Y60250D02*
G75*
G02X280950I7850D01*
G01*
G75*
G02X269125Y53481I-7850*
G01*
G75*
G02X269200Y52750I-3525J-730*
G01*
G75*
G02X262000I-3600*
G01*
G75*
G02X266331Y56275I3600*
G01*
G75*
G02X265250Y60250I6769J3975*
G01*
X257000Y137750D02*
G75*
G02X264200I3600D01*
G01*
G75*
G02X257000I-3600*
G01*
X239500Y127750D02*
G75*
G02X246700I3600D01*
G01*
G75*
G02X239500I-3600*
G01*
X245250Y60250D02*
G75*
G02X260950I7850D01*
G01*
G75*
G02X245250I-7850*
G01*
X245600Y142350D02*
G75*
G02X250200Y137750J-4600D01*
G01*
G75*
G02X245600Y133150I-4600*
G01*
G75*
G02X241000Y137750J4600*
G01*
G75*
G02X245600Y142350I4600*
G01*
X247000Y115250D02*
G75*
G02X254200I3600D01*
G01*
G75*
G02X247000I-3600*
G01*
X252000Y87750D02*
G75*
G02X259200I3600D01*
G01*
G75*
G02X252000I-3600*
G01*
X233100Y122350D02*
G75*
G02X237700Y117750J-4600D01*
G01*
G75*
G02X233100Y113150I-4600*
G01*
G75*
G02X228500Y117750J4600*
G01*
G75*
G02X233100Y122350I4600*
G01*
X219500Y137750D02*
G75*
G02X226700I3600D01*
G01*
G75*
G02X219500I-3600*
G01*
X218100Y122350D02*
G75*
G02Y113150J-4600D01*
G01*
G75*
G02X213500Y117750J4600*
G01*
G75*
G02X218100Y122350I4600*
G01*
X219500Y105250D02*
G75*
G02X226700I3600D01*
G01*
G75*
G02X219500I-3600*
G01*
X225250Y60250D02*
G75*
G02X240950I7850D01*
G01*
G75*
G02X225250I-7850*
G01*
X217000Y57750D02*
G75*
G02X224200I3600D01*
G01*
G75*
G02X217000I-3600*
G01*
X204500D02*
G75*
G02X211700I3600D01*
G01*
G75*
G02X204500I-3600*
G01*
X184500Y77750D02*
G75*
G02X191700I3600D01*
G01*
G75*
G02X184500I-3600*
G01*
X187750Y60250D02*
G75*
G02X203450I7850D01*
G01*
G75*
G02X187750I-7850*
G01*
X184500Y140250D02*
G75*
G02X191700I3600D01*
G01*
G75*
G02X184500I-3600*
G01*
X189500Y115250D02*
G75*
G02X196700I3600D01*
G01*
G75*
G02X189500I-3600*
G01*
X172000Y162750D02*
G75*
G02X179200I3600D01*
G01*
G75*
G02X172000I-3600*
G01*
X173000Y125250D02*
G75*
G02X183200I5100D01*
G01*
G75*
G02X179105Y120250I-5100*
G01*
G75*
G02Y110250I-1005J-5000*
G01*
G75*
G02X183200Y105250I-1005J-5000*
G01*
G75*
G02X173000I-5100*
G01*
G75*
G02X177095Y110250I5100*
G01*
G75*
G02Y120250I1005J5000*
G01*
G75*
G02X173000Y125250I1005J5000*
G01*
X167750Y60250D02*
G75*
G02X183450I7850D01*
G01*
G75*
G02X167750I-7850*
G01*
X160600Y164850D02*
G75*
G02X165200Y160250J-4600D01*
G01*
G75*
G02X160600Y155650I-4600*
G01*
G75*
G02X156000Y160250J4600*
G01*
G75*
G02X160600Y164850I4600*
G01*
X159500Y130250D02*
G75*
G02X166700I3600D01*
G01*
G75*
G02X159500I-3600*
G01*
X337030Y235787D02*
G75*
G02X337968Y234849J-938D01*
G01*
Y225651*
G75*
G02X337030Y224713I-938*
G01*
X330194*
G75*
G02X329675Y224870I0J938*
G01*
G75*
G02X329156Y224713I-519J781*
G01*
X322320*
G75*
G02X321382Y225651J938*
G01*
Y234849*
G75*
G02X322320Y235787I938*
G01*
X329156*
G75*
G02X329675Y235630I0J-938*
G01*
G75*
G02X330194Y235787I519J-781*
G01*
X337030*
X333500Y210250D02*
G75*
G02X342700I4600D01*
G01*
G75*
G02X333500I-4600*
G01*
X346000Y207750D02*
G75*
G02X355200I4600D01*
G01*
G75*
G02X346000I-4600*
G01*
X349500Y227750D02*
G75*
G02X356700I3600D01*
G01*
G75*
G02X349500I-3600*
G01*
X352000Y282750D02*
G75*
G02X359200I3600D01*
G01*
G75*
G02X352000I-3600*
G01*
X373500Y205250D02*
G75*
G02X382700I4600D01*
G01*
G75*
G02X373500I-4600*
G01*
Y220250D02*
G75*
G02X382700I4600D01*
G01*
G75*
G02X373500I-4600*
G01*
Y237750D02*
G75*
G02X382700I4600D01*
G01*
G75*
G02X373500I-4600*
G01*
Y277750D02*
G75*
G02X382700I4600D01*
G01*
G75*
G02X373500I-4600*
G01*
X393100Y242350D02*
G75*
G02Y233150J-4600D01*
G01*
G75*
G02X388500Y237750J4600*
G01*
G75*
G02X393100Y242350I4600*
G01*
Y287350D02*
G75*
G02X397700Y282750J-4600D01*
G01*
G75*
G02X393100Y278150I-4600*
G01*
G75*
G02X388500Y282750J4600*
G01*
G75*
G02X393100Y287350I4600*
G01*
X394500Y270250D02*
G75*
G02X401700I3600D01*
G01*
G75*
G02X394500I-3600*
G01*
X408100Y287350D02*
G75*
G02X412700Y282750J-4600D01*
G01*
G75*
G02X408100Y278150I-4600*
G01*
G75*
G02X403500Y282750J4600*
G01*
G75*
G02X408100Y287350I4600*
G01*
X404500Y227750D02*
G75*
G02X411700I3600D01*
G01*
G75*
G02X404500I-3600*
G01*
X406028Y69974D02*
G75*
G02X417495I5734D01*
G01*
G75*
G02X406028I-5734*
G01*
Y133872D02*
G75*
G02X417495I5734D01*
G01*
G75*
G02X406028I-5734*
G01*
X417000Y125250D02*
G75*
G02X424200I3600D01*
G01*
G75*
G02X417000I-3600*
G01*
X419500Y97750D02*
G75*
G02X426700I3600D01*
G01*
G75*
G02X419500I-3600*
G01*
X417051Y275250D02*
G75*
G02X429700I6324D01*
G01*
G75*
G02X417051I-6324*
G01*
X423100Y242350D02*
G75*
G02X427700Y237750J-4600D01*
G01*
G75*
G02X423100Y233150I-4600*
G01*
G75*
G02X418500Y237750J4600*
G01*
G75*
G02X423100Y242350I4600*
G01*
X424500Y187750D02*
G75*
G02X431700I3600D01*
G01*
G75*
G02X427463Y184207I-3600*
G01*
G75*
G02X427700Y182750I-4363J-1456*
G01*
G75*
G02X418500I-4600*
G01*
G75*
G02X424557Y187113I4600*
G01*
G75*
G02X424500Y187750I3543J636*
G01*
X430600Y152350D02*
G75*
G02Y143150J-4600D01*
G01*
G75*
G02X426000Y147750J4600*
G01*
G75*
G02X430600Y152350I4600*
G01*
X434500Y52750D02*
G75*
G02X441700I3600D01*
G01*
G75*
G02X434500I-3600*
G01*
X427000Y110250D02*
G75*
G02X434200I3600D01*
G01*
G75*
G02X427000I-3600*
G01*
X418500Y222750D02*
G75*
G02X427700I4600D01*
G01*
G75*
G02X418500I-4600*
G01*
X173500Y215250D02*
G75*
G02X182700I4600D01*
G01*
G75*
G02X173500I-4600*
G01*
X174500Y282750D02*
G75*
G02X181700I3600D01*
G01*
G75*
G02X174500I-3600*
G01*
X189500Y230250D02*
G75*
G02X196700I3600D01*
G01*
G75*
G02X189500I-3600*
G01*
X218900Y235787D02*
G75*
G02X219838Y234849J-938D01*
G01*
Y225651*
G75*
G02X218900Y224713I-938*
G01*
X212064*
G75*
G02X211545Y224870I0J938*
G01*
G75*
G02X211026Y224713I-519J781*
G01*
X204190*
G75*
G02X203252Y225651J938*
G01*
Y234849*
G75*
G02X204190Y235787I938*
G01*
X211026*
G75*
G02X211545Y235630I0J-938*
G01*
G75*
G02X212064Y235787I519J-781*
G01*
X218900*
X218500Y210250D02*
G75*
G02X227700I4600D01*
G01*
G75*
G02X218500I-4600*
G01*
X206000D02*
G75*
G02X215200I4600D01*
G01*
G75*
G02X206000I-4600*
G01*
X234667Y235807D02*
G75*
G02X235606Y234869J-938D01*
G01*
Y225671*
G75*
G02X234667Y224733I-938*
G01*
X227832*
G75*
G02X226894Y225671J938*
G01*
Y234869*
G75*
G02X227832Y235807I938*
G01*
X234667*
X231000Y210250D02*
G75*
G02X240200I4600D01*
G01*
G75*
G02X231000I-4600*
G01*
X234500Y282750D02*
G75*
G02X241700I3600D01*
G01*
G75*
G02X234500I-3600*
G01*
X239500Y227750D02*
G75*
G02X246700I3600D01*
G01*
G75*
G02X239500I-3600*
G01*
X95600Y149850D02*
G75*
G02Y140650J-4600D01*
G01*
G75*
G02X91000Y145250J4600*
G01*
G75*
G02X95600Y149850I4600*
G01*
X97000Y102750D02*
G75*
G02X104200I3600D01*
G01*
G75*
G02X97000I-3600*
G01*
X101205Y69128D02*
G75*
G02X112672I5734D01*
G01*
G75*
G02X101205I-5734*
G01*
X94500Y167750D02*
G75*
G02X101700I3600D01*
G01*
G75*
G02X94500I-3600*
G01*
X101205Y133026D02*
G75*
G02X112672I5734D01*
G01*
G75*
G02X101205I-5734*
G01*
X103000Y170250D02*
G75*
G02X113200I5100D01*
G01*
G75*
G02X109105Y165250I-5100*
G01*
G75*
G02Y155250I-1005J-5000*
G01*
G75*
G02X113200Y150250I-1005J-5000*
G01*
G75*
G02X103000I-5100*
G01*
G75*
G02X107095Y155250I5100*
G01*
G75*
G02Y165250I1005J5000*
G01*
G75*
G02X103000Y170250I1005J5000*
G01*
X114500Y77750D02*
G75*
G02X121700I3600D01*
G01*
G75*
G02X114500I-3600*
G01*
Y125250D02*
G75*
G02X121700I3600D01*
G01*
G75*
G02X114500I-3600*
G01*
X119500Y147750D02*
G75*
G02X126700I3600D01*
G01*
G75*
G02X119500I-3600*
G01*
Y165250D02*
G75*
G02X126700I3600D01*
G01*
G75*
G02X119500I-3600*
G01*
X127000Y50250D02*
G75*
G02X134200I3600D01*
G01*
G75*
G02X127000I-3600*
G01*
X129500Y185250D02*
G75*
G02X136700I3600D01*
G01*
G75*
G02X129500I-3600*
G01*
X132000Y282750D02*
G75*
G02X139200I3600D01*
G01*
G75*
G02X132000I-3600*
G01*
X134500Y230250D02*
G75*
G02X141700I3600D01*
G01*
G75*
G02X134500I-3600*
G01*
X139500Y152750D02*
G75*
G02X146700I3600D01*
G01*
G75*
G02X139500I-3600*
G01*
X147759Y60631D02*
G75*
G02X163450Y60250I7841J-381D01*
G01*
G75*
G02X148861Y56224I-7850*
G01*
G75*
G02X142000Y57750I-3261J1526*
G01*
G75*
G02X147759Y60631I3600*
G01*
X146000Y90250D02*
G75*
G02X155200I4600D01*
G01*
G75*
G02X146000I-4600*
G01*
Y130250D02*
G75*
G02X155200I4600D01*
G01*
G75*
G02X146000I-4600*
G01*
X82000Y162750D02*
G75*
G02X89200I3600D01*
G01*
G75*
G02X82000I-3600*
G01*
X68502Y283348D02*
X77698D01*
Y272152*
X68502*
Y283348*
X74500Y262750D02*
G75*
G02X81700I3600D01*
G01*
G75*
G02X74500I-3600*
G01*
X77000Y130250D02*
G75*
G02X84200I3600D01*
G01*
G75*
G02X77000I-3600*
G01*
Y145250D02*
G75*
G02X84200I3600D01*
G01*
G75*
G02X77000I-3600*
G01*
X55600Y149850D02*
G75*
G02X60200Y145250J-4600D01*
G01*
G75*
G02X55600Y140650I-4600*
G01*
G75*
G02X51000Y145250J4600*
G01*
G75*
G02X55600Y149850I4600*
G01*
X51205Y69128D02*
G75*
G02X62672I5734D01*
G01*
G75*
G02X51205I-5734*
G01*
Y133026D02*
G75*
G02X62672I5734D01*
G01*
G75*
G02X51205I-5734*
G01*
X54500Y262750D02*
G75*
G02X61700I3600D01*
G01*
G75*
G02X54500I-3600*
G01*
X58500Y162750D02*
G75*
G02X67700I4600D01*
G01*
G75*
G02X58500I-4600*
G01*
X67000Y92750D02*
G75*
G02X74200I3600D01*
G01*
G75*
G02X67000I-3600*
G01*
X58500Y177750D02*
G75*
G02X67700I4600D01*
G01*
G75*
G02X58500I-4600*
G01*
X59500Y190250D02*
G75*
G02X66700I3600D01*
G01*
G75*
G02X59500I-3600*
G01*
X58502Y283348D02*
X67698D01*
Y272152*
X58502*
Y283348*
X220250Y45550D02*
G36*
G75*
G02X219500Y47750I2850J2200D01*
G01*
G75*
G02X220509Y50250I3600J0*
G01*
X134200*
G75*
G02X127000I-3600*
G01*
X58304*
G75*
G02X54311Y45550I-7705J2500*
G01*
X220250*
G37*
X390250D02*
G36*
G75*
G02X389500Y47750I2850J2200D01*
G01*
G75*
G02X390509Y50250I3600J0*
G01*
X301700*
G75*
G02X294500I-3600*
G01*
X268191*
G75*
G02X263009I-2591J2500*
G01*
X225691*
G75*
G02X226700Y47750I-2591J-2500*
G01*
G75*
G02X225950Y45550I-3600*
G01*
X390250*
G37*
X460396Y50250D02*
G36*
X440691D01*
G75*
G02X435509I-2591J2500*
G01*
X395691*
G75*
G02X396700Y47750I-2591J-2500*
G01*
G75*
G02X395950Y45550I-3600*
G01*
X464389*
G75*
G02X460396Y50250I3711J7200*
G01*
G37*
X47541Y60250D02*
G36*
X43400D01*
Y56461*
G75*
G02X47541Y60250I7200J-3711*
G01*
G37*
X265250D02*
G36*
X260950D01*
G75*
G02X245250I-7850*
G01*
X240950*
G75*
G02X225250I-7850*
G01*
X223191*
G75*
G02X224200Y57750I-2591J-2500*
G01*
G75*
G02X217000I-3600*
G01*
G75*
G02X218009Y60250I3600J0*
G01*
X210691*
G75*
G02X211700Y57750I-2591J-2500*
G01*
G75*
G02X204500I-3600*
G01*
G75*
G02X205509Y60250I3600J0*
G01*
X203450*
G75*
G02X187750I-7850*
G01*
X183450*
G75*
G02X167750I-7850*
G01*
X163450*
G75*
G02X148861Y56224I-7850*
G01*
G75*
G02X142000Y57750I-3261J1526*
G01*
G75*
G02X143009Y60250I3600*
G01*
X53659*
G75*
G02X58700Y52750I-3059J-7500*
G01*
G75*
G02X58304Y50250I-8101J1*
G01*
X127000*
G75*
G02X134200I3600*
G01*
X220509*
G75*
G02X225691I2591J-2500*
G01*
X263009*
G75*
G02X262000Y52750I2591J2500*
G01*
Y52750*
G75*
G02X266331Y56275I3600*
G01*
G75*
G02X265250Y60250I6776J3976*
G01*
G37*
X460396Y50250D02*
G36*
G75*
G02X460000Y52750I7705J2501D01*
G01*
G75*
G02X465041Y60250I8100J0*
G01*
X404200*
G75*
G02X397000I-3600*
G01*
X358450*
G75*
G02X342750I-7850*
G01*
X338450*
G75*
G02X322750I-7850*
G01*
X318450*
G75*
G02X302750I-7850*
G01*
X280950*
G75*
G02X269125Y53481I-7850*
G01*
G75*
G02X269200Y52750I-3559J-733*
G01*
G75*
G02X268191Y50250I-3600J0*
G01*
X294500*
G75*
G02X301700I3600*
G01*
X390509*
G75*
G02X395691I2591J-2500*
G01*
X435509*
G75*
G02X434500Y52750I2591J2500*
G01*
G75*
G02X441700I3600*
G01*
G75*
G02X440691Y50250I-3600J0*
G01*
X460396*
G37*
X475300Y56461D02*
G36*
Y60250D01*
X471159*
G75*
G02X475300Y56461I-3059J-7500*
G01*
G37*
X302750Y60250D02*
G36*
G75*
G02X308500Y67814I7851J-1D01*
G01*
Y69974*
X293431*
G75*
G02X294200Y67750I-2831J-2224*
G01*
G75*
G02X287000I-3600*
G01*
G75*
G02X287769Y69974I3600J0*
G01*
X112609*
G75*
G02X112672Y69128I-5671J-848*
G01*
G75*
G02X101205I-5734*
G01*
G75*
G02X101268Y69974I5734J-1*
G01*
X62609*
G75*
G02X62672Y69128I-5671J-848*
G01*
G75*
G02X51205I-5734*
G01*
G75*
G02X51268Y69974I5734J-1*
G01*
X43400*
Y60250*
X47541*
G75*
G02X53659I3059J-7500*
G01*
X143009*
G75*
G02X147759Y60631I2591J-2500*
G01*
G75*
G02X163450Y60250I7841J-380*
G01*
Y60250*
X167750*
G75*
G02X183450I7850*
G01*
X187750*
G75*
G02X203450I7850*
G01*
X205509*
G75*
G02X210691I2591J-2500*
G01*
X218009*
G75*
G02X223191I2591J-2500*
G01*
X225250*
G75*
G02X240950I7850*
G01*
X245250*
G75*
G02X260950I7850*
G01*
X265250*
G75*
G02X280950I7850*
G01*
X302750*
G37*
X471159D02*
G36*
X475300D01*
Y69974*
X467495*
G75*
G02X456028I-5734*
G01*
X417495*
G75*
G02X406028I-5734*
G01*
X379268*
G75*
G02X371932I-3668J2776*
G01*
X312700*
Y67814*
G75*
G02X318450Y60250I-2100J-7564*
G01*
X322750*
G75*
G02X338450I7850*
G01*
X342750*
G75*
G02X358450I7850*
G01*
X397000*
G75*
G02X404200I3600*
G01*
X465041*
G75*
G02X471159I3059J-7500*
G01*
G37*
X308500Y75250D02*
G36*
X190691D01*
G75*
G02X185509I-2591J2500*
G01*
X120691*
G75*
G02X115509I-2591J2500*
G01*
X43400*
Y69974*
X51268*
G75*
G02X62609I5671J-846*
G01*
X101268*
G75*
G02X112609I5671J-846*
G01*
X287769*
G75*
G02X293431I2831J-2224*
G01*
X308500*
Y75250*
G37*
X370130D02*
G36*
X324200D01*
G75*
G02X317000I-3600*
G01*
X312700*
Y69974*
X371932*
G75*
G02X371000Y72750I3668J2776*
G01*
G75*
G02Y72752I5307J1*
G01*
G75*
G02X371221Y74159I4588*
G01*
X370130Y75250*
G37*
X406028Y69974D02*
G36*
G75*
G02X409515Y75250I5734D01*
G01*
X379461*
G75*
G02X380200Y72750I-3861J-2500*
G01*
G75*
G02X379268Y69974I-4600J0*
G01*
X406028*
G37*
X456028D02*
G36*
G75*
G02X459515Y75250I5734D01*
G01*
X414007*
G75*
G02X417495Y69974I-2246J-5276*
G01*
X456028*
G37*
X467495D02*
G36*
X475300D01*
Y75250*
X464007*
G75*
G02X467495Y69974I-2246J-5276*
G01*
G37*
X312630Y82750D02*
G36*
X43400D01*
Y75250*
X115509*
G75*
G02X114500Y77750I2591J2500*
G01*
G75*
G02X121700I3600*
G01*
G75*
G02X120691Y75250I-3600J0*
G01*
X185509*
G75*
G02X184500Y77750I2591J2500*
G01*
G75*
G02X191700I3600*
G01*
G75*
G02X190691Y75250I-3600J0*
G01*
X308500*
Y77750*
G75*
G02X309115Y79235I2102J0*
G01*
X312630Y82750*
G37*
X370130Y75250D02*
G36*
X364730Y80650D01*
X358102*
G75*
G02X356615Y81265I-2J2101*
G01*
X355130Y82750*
X318570*
X312700Y76880*
Y75250*
X317000*
G75*
G02X324200I3600*
G01*
X370130*
G37*
X379461D02*
G36*
X409515D01*
G75*
G02X414007I2246J-5275*
G01*
X459515*
G75*
G02X464007I2246J-5275*
G01*
X475300*
Y82750*
X464200*
G75*
G02X457000I-3600*
G01*
X368570*
X374191Y77129*
G75*
G02X379461Y75250I1409J-4379*
G01*
G37*
X368570Y82750D02*
G36*
X457000D01*
G75*
G02X464200I3600*
G01*
X475300*
Y87750*
X314200*
G75*
G02X307000I-3600*
G01*
X259200*
G75*
G02X252000I-3600*
G01*
X154461*
G75*
G02X146739I-3861J2500*
G01*
X43400*
Y82750*
X312630*
X316615Y86735*
G75*
G02X318102Y87350I1485J-1486*
G01*
X355598*
G75*
G02X357085Y86735I2J-2101*
G01*
X358970Y84850*
X365598*
G75*
G02X367085Y84235I2J-2101*
G01*
X368570Y82750*
G37*
X355130D02*
G36*
X354730Y83150D01*
X318970*
X318570Y82750*
X355130*
G37*
X146739Y92750D02*
G36*
X74200D01*
G75*
G02X67000I-3600*
G01*
X43400*
Y87750*
X146739*
G75*
G02X146000Y90250I3861J2500*
G01*
G75*
G02X146739Y92750I4600*
G01*
G37*
X154461D02*
G36*
G75*
G02X155200Y90250I-3861J-2500D01*
G01*
G75*
G02X154461Y87750I-4600*
G01*
X252000*
G75*
G02X259200I3600*
G01*
X307000*
G75*
G02X314200I3600*
G01*
X475300*
Y92750*
X379200*
G75*
G02X372000I-3600*
G01*
X154461*
G37*
X179105Y100250D02*
G36*
G75*
G02X177095I-1005J5001D01*
G01*
X103191*
G75*
G02X98009I-2591J2500*
G01*
X43400*
Y92750*
X67000*
G75*
G02X74200I3600*
G01*
X146739*
G75*
G02X154461I3861J-2500*
G01*
X372000*
G75*
G02X379200I3600*
G01*
X475300*
Y100250*
X425691*
G75*
G02X426700Y97750I-2591J-2500*
G01*
G75*
G02X419500I-3600*
G01*
G75*
G02X420509Y100250I3600J0*
G01*
X404200*
G75*
G02X397000I-3600*
G01*
X363700*
G75*
G02X352500I-5600*
G01*
X308700*
G75*
G02X297500I-5600*
G01*
X179105*
G37*
X173655Y107750D02*
G36*
X43400D01*
Y100250*
X98009*
G75*
G02X97000Y102750I2591J2500*
G01*
G75*
G02X104200I3600*
G01*
G75*
G02X103191Y100250I-3600J0*
G01*
X177095*
G75*
G02X173000Y105250I1005J5000*
G01*
Y105250*
G75*
G02X173655Y107750I5100*
G01*
G37*
X433191D02*
G36*
G75*
G02X428009I-2591J2500D01*
G01*
X323111*
G75*
G02X313089I-5011J2500*
G01*
X300691*
G75*
G02X295509I-2591J2500*
G01*
X286700*
G75*
G02X279500I-3600*
G01*
X268111*
G75*
G02X258089I-5011J2500*
G01*
X225691*
G75*
G02X226700Y105250I-2591J-2500*
G01*
G75*
G02X219500I-3600*
G01*
G75*
G02X220509Y107750I3600J0*
G01*
X182545*
G75*
G02X183200Y105250I-4445J-2500*
G01*
Y105250*
G75*
G02X179105Y100250I-5100*
G01*
X297500*
G75*
G02X308700I5600*
G01*
X352500*
G75*
G02X363700I5600*
G01*
X397000*
G75*
G02X404200I3600*
G01*
X420509*
G75*
G02X425691I2591J-2500*
G01*
X475300*
Y107750*
X433191*
G37*
X173655D02*
G36*
G75*
G02X177095Y110250I4445J-2500D01*
G01*
G75*
G02X173655Y112750I1005J5000*
G01*
X43400*
Y107750*
X173655*
G37*
X258089Y112750D02*
G36*
X253191D01*
G75*
G02X248009I-2591J2500*
G01*
X195691*
G75*
G02X190509I-2591J2500*
G01*
X182545*
G75*
G02X179105Y110250I-4445J2500*
G01*
G75*
G02X182545Y107750I-1005J-5000*
G01*
X220509*
G75*
G02X225691I2591J-2500*
G01*
X258089*
G75*
G02X257500Y110250I5011J2500*
G01*
G75*
G02X258089Y112750I5600*
G01*
G37*
X295509D02*
G36*
X268111D01*
G75*
G02X268700Y110250I-5011J-2500*
G01*
G75*
G02X268111Y107750I-5600*
G01*
X279500*
G75*
G02X286700I3600*
G01*
X295509*
G75*
G02X294500Y110250I2591J2500*
G01*
G75*
G02X295509Y112750I3600J0*
G01*
G37*
X313089D02*
G36*
X300691D01*
G75*
G02X301700Y110250I-2591J-2500*
G01*
G75*
G02X300691Y107750I-3600J0*
G01*
X313089*
G75*
G02X312500Y110250I5011J2500*
G01*
G75*
G02X313089Y112750I5600*
G01*
G37*
X428009D02*
G36*
X380200D01*
G75*
G02X371000I-4600*
G01*
X334200*
G75*
G02X327000I-3600*
G01*
X323111*
G75*
G02X323700Y110250I-5011J-2500*
G01*
G75*
G02X323111Y107750I-5600*
G01*
X428009*
G75*
G02X427000Y110250I2591J2500*
G01*
G75*
G02X428009Y112750I3600J0*
G01*
G37*
X433191D02*
G36*
G75*
G02X434200Y110250I-2591J-2500D01*
G01*
G75*
G02X433191Y107750I-3600J0*
G01*
X475300*
Y112750*
X433191*
G37*
X173655Y117750D02*
G36*
X43400D01*
Y112750*
X173655*
G75*
G02X173000Y115250I4445J2500*
G01*
G75*
G02X173655Y117750I5100*
G01*
G37*
X190509D02*
G36*
X182545D01*
G75*
G02X183200Y115250I-4445J-2500*
G01*
G75*
G02X182545Y112750I-5100*
G01*
X190509*
G75*
G02X189500Y115250I2591J2500*
G01*
G75*
G02X190509Y117750I3600J0*
G01*
G37*
X248009D02*
G36*
X237700D01*
Y117750*
G75*
G02X233100Y113150I-4600*
G01*
G75*
G02X228500Y117750J4600*
G01*
Y117750*
X222700*
G75*
G02X218100Y113150I-4600*
G01*
G75*
G02X213500Y117750J4600*
G01*
Y117750*
X195691*
G75*
G02X196700Y115250I-2591J-2500*
G01*
G75*
G02X195691Y112750I-3600J0*
G01*
X248009*
G75*
G02X247000Y115250I2591J2500*
G01*
G75*
G02X248009Y117750I3600J0*
G01*
G37*
X363111D02*
G36*
G75*
G02X353089I-5011J2500D01*
G01*
X308111*
G75*
G02X298089I-5011J2500*
G01*
X253191*
G75*
G02X254200Y115250I-2591J-2500*
G01*
G75*
G02X253191Y112750I-3600J0*
G01*
X258089*
G75*
G02X268111I5011J-2500*
G01*
X295509*
G75*
G02X300691I2591J-2500*
G01*
X313089*
G75*
G02X323111I5011J-2500*
G01*
X327000*
G75*
G02X334200I3600*
G01*
X371000*
G75*
G02X380200I4600*
G01*
X428009*
G75*
G02X433191I2591J-2500*
G01*
X475300*
Y117750*
X363111*
G37*
X173655Y122750D02*
G36*
X120691D01*
G75*
G02X115509I-2591J2500*
G01*
X43400*
Y117750*
X173655*
G75*
G02X177095Y120250I4445J-2500*
G01*
G75*
G02X173655Y122750I1005J5000*
G01*
G37*
X298089D02*
G36*
X278191D01*
G75*
G02X273009I-2591J2500*
G01*
X264200*
G75*
G02X257000I-3600*
G01*
X182545*
G75*
G02X179105Y120250I-4445J2500*
G01*
G75*
G02X182545Y117750I-1005J-5000*
G01*
X190509*
G75*
G02X195691I2591J-2500*
G01*
X213500*
Y117750*
G75*
G02X218100Y122350I4600*
G01*
G75*
G02X222700Y117750J-4600*
G01*
X228500*
Y117750*
G75*
G02X233100Y122350I4600*
G01*
G75*
G02X237700Y117750J-4600*
G01*
Y117750*
X248009*
G75*
G02X253191I2591J-2500*
G01*
X298089*
G75*
G02X297500Y120250I5011J2500*
G01*
G75*
G02X298089Y122750I5600*
G01*
G37*
X353089D02*
G36*
X308111D01*
G75*
G02X308700Y120250I-5011J-2500*
G01*
G75*
G02X308111Y117750I-5600*
G01*
X353089*
G75*
G02X352500Y120250I5011J2500*
G01*
G75*
G02X353089Y122750I5600*
G01*
G37*
X423191D02*
G36*
G75*
G02X418009I-2591J2500D01*
G01*
X363111*
G75*
G02X363700Y120250I-5011J-2500*
G01*
G75*
G02X363111Y117750I-5600*
G01*
X475300*
Y122750*
X456700*
G75*
G02X449500I-3600*
G01*
X423191*
G37*
X173655D02*
G36*
G75*
G02X173000Y125250I4445J2500D01*
G01*
Y125250*
G75*
G02X177095Y130250I5100*
G01*
X166700*
G75*
G02X159500I-3600*
G01*
X155200*
G75*
G02X146000I-4600*
G01*
X111956*
G75*
G02X101921I-5017J2776*
G01*
X84200*
G75*
G02X77000I-3600*
G01*
X61956*
G75*
G02X51921I-5017J2776*
G01*
X43400*
Y122750*
X115509*
G75*
G02X114500Y125250I2591J2500*
G01*
G75*
G02X121700I3600*
G01*
G75*
G02X120691Y122750I-3600J0*
G01*
X173655*
G37*
X466206Y130250D02*
G36*
G75*
G02X457317I-4445J3622D01*
G01*
X416206*
G75*
G02X407317I-4445J3622*
G01*
X381700*
G75*
G02X374500I-3600*
G01*
X315691*
G75*
G02X310509I-2591J2500*
G01*
X245691*
G75*
G02X246700Y127750I-2591J-2500*
G01*
G75*
G02X239500I-3600*
G01*
G75*
G02X240509Y130250I3600J0*
G01*
X179105*
G75*
G02X183200Y125250I-1005J-5000*
G01*
Y125250*
G75*
G02X182545Y122750I-5100*
G01*
X257000*
G75*
G02X264200I3600*
G01*
X273009*
G75*
G02X272000Y125250I2591J2500*
G01*
G75*
G02X279200I3600*
G01*
G75*
G02X278191Y122750I-3600J0*
G01*
X298089*
G75*
G02X308111I5011J-2500*
G01*
X353089*
G75*
G02X363111I5011J-2500*
G01*
X418009*
G75*
G02X417000Y125250I2591J2500*
G01*
G75*
G02X424200I3600*
G01*
G75*
G02X423191Y122750I-3600J0*
G01*
X449500*
G75*
G02X456700I3600*
G01*
X475300*
Y130250*
X466206*
G37*
X51268Y133872D02*
G36*
X43400D01*
Y130250*
X51921*
G75*
G02X51205Y133026I5017J2776*
G01*
G75*
G02X51268Y133872I5734J-1*
G01*
G37*
X101268D02*
G36*
X62609D01*
G75*
G02X62672Y133026I-5671J-848*
G01*
G75*
G02X61956Y130250I-5734*
G01*
X77000*
G75*
G02X84200I3600*
G01*
X101921*
G75*
G02X101205Y133026I5017J2776*
G01*
G75*
G02X101268Y133872I5734J-1*
G01*
G37*
X146000Y130250D02*
G36*
G75*
G02X147765Y133872I4600J0D01*
G01*
X112609*
G75*
G02X112672Y133026I-5671J-848*
G01*
G75*
G02X111956Y130250I-5734*
G01*
X146000*
G37*
X309679Y133872D02*
G36*
X288074D01*
G75*
G02X285600Y133150I-2474J3878*
G01*
G75*
G02X283126Y133872J4600*
G01*
X248074*
G75*
G02X245600Y133150I-2474J3878*
G01*
G75*
G02X243126Y133872I0J4600*
G01*
X153435*
G75*
G02X155200Y130250I-2835J-3622*
G01*
X159500*
G75*
G02X166700I3600*
G01*
X177095*
G75*
G02X179105I1005J-5001*
G01*
X240509*
G75*
G02X245691I2591J-2500*
G01*
X310509*
G75*
G02X309500Y132750I2591J2500*
G01*
G75*
G02X309679Y133872I3600J0*
G01*
G37*
X406028D02*
G36*
X374834D01*
X372156Y131194*
G75*
G02X370599Y130550I-1556J1556*
G01*
X365601*
G75*
G02X364044Y131194I-1J2200*
G01*
X361366Y133872*
X316521*
G75*
G02X316700Y132750I-3421J-1122*
G01*
G75*
G02X315691Y130250I-3600J0*
G01*
X374500*
G75*
G02X381700I3600*
G01*
X407317*
G75*
G02X406028Y133872I4445J3622*
G01*
G37*
X456028D02*
G36*
X417495D01*
G75*
G02X416206Y130250I-5734*
G01*
X457317*
G75*
G02X456028Y133872I4445J3622*
G01*
G37*
X467495D02*
G36*
G75*
G02X466206Y130250I-5734D01*
G01*
X475300*
Y133872*
X467495*
G37*
X242113Y140750D02*
G36*
X225090D01*
G75*
G02X226700Y137750I-1990J-3000*
G01*
G75*
G02X219500I-3600*
G01*
G75*
G02X221110Y140750I3600*
G01*
X191665*
G75*
G02X191700Y140250I-3565J-501*
G01*
G75*
G02X184500I-3600*
G01*
G75*
G02X184535Y140750I3600J-1*
G01*
X96554*
G75*
G02X95600Y140650I-954J4500*
G01*
G75*
G02X94646Y140750I0J4601*
G01*
X56554*
G75*
G02X55600Y140650I-954J4501*
G01*
G75*
G02X54646Y140750I0J4601*
G01*
X43400*
Y133872*
X51268*
G75*
G02X62609I5671J-846*
G01*
X101268*
G75*
G02X112609I5671J-846*
G01*
X147765*
G75*
G02X153435I2835J-3622*
G01*
X243126*
G75*
G02X241000Y137750I2474J3878*
G01*
Y137750*
Y137750*
G75*
G02X242113Y140750I4600*
G01*
G37*
X354488D02*
G36*
X327590D01*
G75*
G02X329200Y137750I-1990J-3000*
G01*
G75*
G02X322000I-3600*
G01*
G75*
G02Y137751I3470J0*
G01*
G75*
G02X322057Y138387I3594*
G01*
G75*
G02X316457Y140750I-1457J4363*
G01*
X289087*
G75*
G02X290200Y137750I-3488J-3000*
G01*
G75*
G02X288074Y133872I-4600*
G01*
X309679*
G75*
G02X316521I3421J-1122*
G01*
X361366*
X361125Y134113*
G75*
G02X360480Y135669I1557J1556*
G01*
G75*
G02X360601Y136388I2202J0*
G01*
G75*
G02X359238Y137751I2506J3869*
G01*
G75*
G02X356959Y138280I-719J2081*
G01*
X354488Y140750*
G37*
X282113D02*
G36*
X262590D01*
G75*
G02X264200Y137750I-1990J-3000*
G01*
G75*
G02X257000I-3600*
G01*
G75*
G02X258610Y140750I3600*
G01*
X249087*
G75*
G02X250200Y137750I-3487J-3000*
G01*
Y137750*
Y137750*
G75*
G02X248074Y133872I-4600*
G01*
X283126*
G75*
G02X281000Y137750I2474J3878*
G01*
G75*
G02X282113Y140750I4600J0*
G01*
G37*
X381712D02*
G36*
X374834Y133872D01*
X406028*
G75*
G02X417495I5734*
G01*
X456028*
G75*
G02X467495I5734*
G01*
X475300*
Y140750*
X381712*
G37*
X51739Y147750D02*
G36*
X43400D01*
Y140750*
X54646*
G75*
G02X51000Y145250I954J4500*
G01*
Y145250*
Y145250*
G75*
G02X51739Y147750I4600*
G01*
G37*
X91739D02*
G36*
X83191D01*
G75*
G02X84200Y145250I-2591J-2500*
G01*
G75*
G02X77000I-3600*
G01*
G75*
G02X78009Y147750I3600J0*
G01*
X59461*
G75*
G02X60200Y145250I-3861J-2500*
G01*
Y145250*
Y145250*
G75*
G02X56554Y140750I-4600*
G01*
X94646*
G75*
G02X91000Y145250I954J4500*
G01*
Y145250*
Y145250*
G75*
G02X91739Y147750I4600*
G01*
G37*
X282113Y140750D02*
G36*
G75*
G02X283957Y142047I3487J-3000D01*
G01*
G75*
G02X282000Y145250I1643J3203*
G01*
G75*
G02X283009Y147750I3600J0*
G01*
X272700*
G75*
G02X268100Y143150I-4600*
G01*
G75*
G02X263500Y147750J4600*
G01*
X253191*
G75*
G02X248009I-2591J2500*
G01*
X236961*
G75*
G02X233100Y145650I-3861J2500*
G01*
G75*
G02X229239Y147750J4600*
G01*
X221961*
G75*
G02X218100Y145650I-3861J2500*
G01*
G75*
G02X214239Y147750J4600*
G01*
X205200*
G75*
G02X200600Y143150I-4600*
G01*
G75*
G02X196000Y147750J4600*
G01*
X165200*
G75*
G02X156507Y145650I-4600*
G01*
X155602*
G75*
G02X154115Y146265I-2J2101*
G01*
X152630Y147750*
X126700*
G75*
G02X119500I-3600*
G01*
X112545*
G75*
G02X103655I-4445J2500*
G01*
X99461*
G75*
G02X100200Y145250I-3861J-2500*
G01*
G75*
G02X96554Y140750I-4600*
G01*
X184535*
G75*
G02X191665I3565J-500*
G01*
X221110*
G75*
G02X225090I1990J-3000*
G01*
X242113*
G75*
G02X245600Y142350I3487J-3000*
G01*
G75*
G02X249087Y140750I0J-4600*
G01*
X258610*
G75*
G02X262590I1990J-3000*
G01*
X282113*
G37*
X327488Y147750D02*
G36*
X314200D01*
G75*
G02X307000I-3600*
G01*
X302700*
G75*
G02X298100Y143150I-4600*
G01*
G75*
G02X293500Y147750J4600*
G01*
X288191*
G75*
G02X289200Y145250I-2591J-2500*
G01*
G75*
G02X287243Y142047I-3600*
G01*
G75*
G02X289087Y140750I-1643J-4297*
G01*
X316457*
G75*
G02X316000Y142750I4143J2000*
G01*
G75*
G02X325200I4600*
G01*
G75*
G02Y142749I-4101J0*
G01*
G75*
G02X324963Y141293I-4597*
G01*
G75*
G02X327590Y140750I636J-3544*
G01*
X354488*
X352189Y143050*
X333101*
G75*
G02X331544Y143694I-1J2200*
G01*
X327488Y147750*
G37*
X395200D02*
G36*
G75*
G02X390600Y143150I-4600D01*
G01*
G75*
G02X386543Y145581I-1J4599*
G01*
X381712Y140750*
X475300*
Y147750*
X435200*
G75*
G02X430600Y143150I-4600*
G01*
G75*
G02X426000Y147750J4600*
G01*
Y147750*
X395200*
G37*
X103655D02*
G36*
G75*
G02X103000Y150250I4445J2500D01*
G01*
Y150250*
G75*
G02X107095Y155250I5100*
G01*
X43400*
Y147750*
X51739*
G75*
G02X55600Y149850I3861J-2500*
G01*
G75*
G02X59461Y147750J-4600*
G01*
X78009*
G75*
G02X83191I2591J-2500*
G01*
X91739*
G75*
G02X95600Y149850I3861J-2500*
G01*
G75*
G02X99461Y147750J-4600*
G01*
X103655*
G37*
X152630D02*
G36*
X151615Y148765D01*
G75*
G02X151535Y148850I2194J2153*
G01*
G75*
G02X151000Y150250I1566J1400*
G01*
Y155250*
X145691*
G75*
G02X146700Y152750I-2591J-2500*
G01*
G75*
G02X139500I-3600*
G01*
G75*
G02X140509Y155250I3600J0*
G01*
X109105*
G75*
G02X113200Y150250I-1005J-5000*
G01*
Y150250*
G75*
G02X112545Y147750I-5100*
G01*
X119500*
G75*
G02X126700I3600*
G01*
X152630*
G37*
X198021Y155250D02*
G36*
X155200D01*
Y151120*
X156470Y149850*
X156507*
G75*
G02X165200Y147750I4093J-2100*
G01*
X196000*
G75*
G02X200393Y152345I4600*
G01*
X199044Y153694*
G75*
G02X199041Y153698I6J10*
G01*
X198625Y154113*
G75*
G02X198021Y155250I1557J1556*
G01*
G37*
X214239Y147750D02*
G36*
G75*
G02X213500Y150250I3861J2500D01*
G01*
Y150250*
G75*
G02Y150256I4338J3*
G01*
G75*
G02X213510Y150550I4384*
G01*
X204250*
G75*
G02X205200Y147750I-3650J-2800*
G01*
X214239*
G37*
X229239D02*
G36*
G75*
G02X228500Y150250I3861J2500D01*
G01*
Y150250*
G75*
G02Y150256I4338J3*
G01*
G75*
G02X228510Y150550I4384*
G01*
X222690*
G75*
G02X222700Y150256I-4374J-294*
G01*
G75*
G02Y150250I-4338J-3*
G01*
Y150250*
G75*
G02X221961Y147750I-4600*
G01*
X229239*
G37*
X248009D02*
G36*
G75*
G02X247000Y150250I2591J2500D01*
G01*
G75*
G02X247013Y150550I3567*
G01*
X237690*
G75*
G02X237700Y150256I-4374J-294*
G01*
G75*
G02Y150250I-4338J-3*
G01*
Y150250*
G75*
G02X236961Y147750I-4600*
G01*
X248009*
G37*
X263500D02*
G36*
G75*
G02X264450Y150550I4600D01*
G01*
X254187*
G75*
G02X254200Y150250I-3554J-300*
G01*
G75*
G02X253191Y147750I-3600J0*
G01*
X263500*
G37*
X293500D02*
G36*
G75*
G02X294450Y150550I4600D01*
G01*
X271750*
G75*
G02X272700Y147750I-3650J-2800*
G01*
X283009*
G75*
G02X288191I2591J-2500*
G01*
X293500*
G37*
X307000D02*
G36*
Y147750D01*
G75*
G02X308337Y150550I3599*
G01*
X301750*
G75*
G02X302700Y147750I-3650J-2800*
G01*
X307000*
G37*
X327488D02*
G36*
X324689Y150550D01*
X312863*
G75*
G02X314200Y147750I-2263J-2799*
G01*
Y147750*
X327488*
G37*
X395200D02*
G36*
X426000D01*
Y147750*
G75*
G02X430600Y152350I4600*
G01*
G75*
G02X435200Y147750J-4600*
G01*
X475300*
Y155250*
X445200*
G75*
G02X436000I-4600*
G01*
X392800*
Y152750*
G75*
G02Y152749I-2256J0*
G01*
G75*
G02X392622Y151882I-2196*
G01*
G75*
G02X395200Y147750I-2022J-4132*
G01*
G37*
X103000Y160250D02*
G36*
X88191D01*
G75*
G02X83009I-2591J2500*
G01*
X66961*
G75*
G02X59239I-3861J2500*
G01*
X49200*
G75*
G02X43400Y157400I-3600*
G01*
Y155250*
X107095*
G75*
G02X103000Y160250I1005J5000*
G01*
G37*
X151000D02*
G36*
X113200D01*
G75*
G02X109105Y155250I-5100*
G01*
X140509*
G75*
G02X145691I2591J-2500*
G01*
X151000*
Y160250*
G37*
X192488D02*
G36*
X178191D01*
G75*
G02X173009I-2591J2500*
G01*
X165200*
Y160250*
G75*
G02X160600Y155650I-4600*
G01*
G75*
G02X156000Y160250J4600*
G01*
Y160250*
X155200*
Y155250*
X198021*
G75*
G02X197980Y155669I2160J420*
G01*
G75*
G02X198101Y156388I2202J0*
G01*
G75*
G02X196738Y157751I2506J3869*
G01*
G75*
G02X194457Y158281I-719J2079*
G01*
X194048Y158690*
X194043Y158696*
X192488Y160250*
G37*
X392800D02*
G36*
Y155250D01*
X436000*
G75*
G02X445200I4600*
G01*
X475300*
Y160250*
X404200*
G75*
G02X397000I-3600*
G01*
X392800*
G37*
X103000D02*
G36*
G75*
G02X107095Y165250I5100D01*
G01*
G75*
G02X103655Y167750I1005J5000*
G01*
X101700*
G75*
G02X94500I-3600*
G01*
X43400*
Y163100*
G75*
G02X49200Y160250I2200J-2850*
G01*
X59239*
G75*
G02X58500Y162750I3861J2500*
G01*
G75*
G02X67700I4600*
G01*
G75*
G02X66961Y160250I-4600*
G01*
X83009*
G75*
G02X82000Y162750I2591J2500*
G01*
G75*
G02X89200I3600*
G01*
G75*
G02X88191Y160250I-3600J0*
G01*
X103000*
G37*
X150510Y167750D02*
G36*
X125691D01*
G75*
G02X126700Y165250I-2591J-2500*
G01*
G75*
G02X119500I-3600*
G01*
G75*
G02X120509Y167750I3600J0*
G01*
X112545*
G75*
G02X109105Y165250I-4445J2500*
G01*
G75*
G02X113200Y160250I-1005J-5000*
G01*
X151000*
Y167326*
G75*
G02X150510Y167750I2100J2923*
G01*
G37*
X188400D02*
G36*
X155691D01*
G75*
G02X155200Y167326I-2590J2500*
G01*
Y160250*
X156000*
Y160250*
G75*
G02X160600Y164850I4600*
G01*
G75*
G02X165200Y160250J-4600*
G01*
Y160250*
X173009*
G75*
G02X172000Y162750I2591J2500*
G01*
G75*
G02X179200I3600*
G01*
G75*
G02X178191Y160250I-3600J0*
G01*
X192488*
X189044Y163694*
G75*
G02X188400Y165249I1554J1555*
G01*
G75*
G02Y165250I1880J0*
G01*
Y167750*
G37*
X398191D02*
G36*
G75*
G02X393009I-2591J2500D01*
G01*
X392800*
Y160250*
X397000*
G75*
G02X404200I3600*
G01*
X475300*
Y167750*
X398191*
G37*
X154180Y176800D02*
G36*
X67601D01*
G75*
G02X58599I-4501J950*
G01*
X43400*
Y167750*
X94500*
G75*
G02X101700I3600*
G01*
X103655*
G75*
G02X103000Y170250I4445J2500*
G01*
Y170250*
G75*
G02X113200I5100*
G01*
Y170250*
G75*
G02X112545Y167750I-5100*
G01*
X120509*
G75*
G02X125691I2591J-2500*
G01*
X150510*
G75*
G02X149500Y170250I2591J2500*
G01*
G75*
G02X151051Y173210I3600*
G01*
G75*
G02X151511Y174123I2044J-457*
G01*
G75*
G02X151615Y174235I1596J-1380*
G01*
X154180Y176800*
G37*
X188400D02*
G36*
X162782D01*
G75*
G02X165200Y172750I-2182J-4050*
G01*
G75*
G02X160600Y168150I-4600*
G01*
G75*
G02X156700Y170311J4600*
G01*
G75*
G02X156700Y170265I-2397J-44*
G01*
G75*
G02Y170250I-2397J-7*
G01*
Y170250*
G75*
G02X155691Y167750I-3599*
G01*
X188400*
Y176800*
G37*
X393009Y167750D02*
G36*
G75*
G02X392800Y167987I2591J2500D01*
G01*
Y167750*
X393009*
G37*
X404198Y176800D02*
G36*
Y174152D01*
X392800*
Y172513*
G75*
G02X399200Y170250I2800J-2263*
G01*
G75*
G02X398191Y167750I-3600*
G01*
X475300*
Y176800*
X469129*
G75*
G02X457071I-6029*
G01*
X404198*
G37*
X158500Y185250D02*
G36*
X136700D01*
G75*
G02X129500I-3600*
G01*
X43400*
Y176800*
X58599*
G75*
G02X58500Y177750I4501J950*
G01*
G75*
G02X67700I4600*
G01*
G75*
G02X67601Y176800I-4600*
G01*
X154180*
X158500Y181120*
Y185250*
G37*
X188400Y176800D02*
G36*
Y185250D01*
X170200*
G75*
G02X162700Y181679I-4600*
G01*
Y180250*
G75*
G02X162085Y178765I-2102J0*
G01*
X160669Y177350*
G75*
G02X162782Y176800I-69J-4600*
G01*
X188400*
G37*
X384606Y185250D02*
G36*
X382727D01*
G75*
G02X382411Y184565I-2124J563*
G01*
G75*
G02X383100Y183744I-4310J-4313*
G01*
G75*
G02X384606Y185250I5000J-3494*
G01*
G37*
X392002D02*
G36*
X391594D01*
G75*
G02X392002Y184939I-3494J-5000*
G01*
Y185250*
G37*
X430690D02*
G36*
G75*
G02X427463Y184207I-2591J2500D01*
G01*
G75*
G02X427700Y182751I-4361J-1456*
G01*
G75*
G02Y182750I-4101J0*
G01*
G75*
G02X418500I-4600*
G01*
G75*
G02X419239Y185250I4600*
G01*
X404198*
Y176800*
X457071*
G75*
G02X469129I6029*
G01*
X475300*
Y185250*
X459200*
G75*
G02X452000I-3600*
G01*
X445200*
G75*
G02X436000I-4600*
G01*
X430690*
G37*
X158500D02*
G36*
Y190250D01*
G75*
G02X159115Y191735I2102J0*
G01*
X160130Y192750*
X65691*
G75*
G02X66700Y190250I-2591J-2500*
G01*
G75*
G02X59500I-3600*
G01*
G75*
G02X60509Y192750I3600J0*
G01*
X43400*
Y185250*
X129500*
G75*
G02X136700I3600*
G01*
X158500*
G37*
X188400D02*
G36*
G75*
G02X190600Y187450I2200D01*
G01*
X191000*
G75*
G02X191526Y187387I-3J-2226*
G01*
G75*
G02X191950Y188050I4073J-2136*
G01*
X178100*
G75*
G02X175900Y190250J2200*
G01*
Y192750*
X166070*
X162700Y189380*
Y188821*
G75*
G02X170200Y185250I2900J-3570*
G01*
Y185250*
X188400*
G37*
X311231Y192750D02*
G36*
X269200D01*
G75*
G02X262000I-3600*
G01*
X212800*
Y188661*
X214011Y187450*
X309111*
X311231Y192750*
G37*
X404198Y185250D02*
G36*
X419239D01*
G75*
G02X424557Y187113I3861J-2500*
G01*
G75*
G02X424500Y187749I3537J636*
G01*
G75*
G02Y187750I3470J0*
G01*
G75*
G02X431700I3600*
G01*
G75*
G02X430690Y185250I-3600J0*
G01*
X436000*
G75*
G02X445200I4600*
G01*
X452000*
G75*
G02X459200I3600*
G01*
X475300*
Y192750*
X330560*
X331960Y189950*
X380600*
G75*
G02X382800Y187750J-2200*
G01*
Y185834*
Y185815*
Y185814*
G75*
G02Y185813I-2417J0*
G01*
G75*
G02X382727Y185250I-2197J0*
G01*
X384606*
G75*
G02X391594I3494J-5000*
G01*
X392002*
Y186348*
X404198*
Y185250*
G37*
X175900Y205250D02*
G36*
X43400D01*
Y192750*
X60509*
G75*
G02X65691I2591J-2500*
G01*
X160130*
X169115Y201735*
G75*
G02X170602Y202350I1485J-1486*
G01*
X174007*
G75*
G02X175964Y204324I4095J-2102*
G01*
G75*
G02X175900Y204850I2155J528*
G01*
Y205250*
G37*
Y192750D02*
G36*
Y195650D01*
G75*
G02X175964Y196176I2219J-2*
G01*
G75*
G02X174007Y198150I2139J4076*
G01*
X171470*
X166070Y192750*
X175900*
G37*
X311231D02*
G36*
X313557Y198567D01*
G75*
G02X315509Y199948I2043J-817*
G01*
G75*
G02X315500Y200250I5250J309*
G01*
G75*
G02X319595Y205250I5100*
G01*
X269461*
G75*
G02X261739I-3861J2500*
G01*
X201211*
X204172Y202290*
G75*
G02X204580Y201730I-1549J-1558*
G01*
G75*
G02X205135Y201326I-1009J-1970*
G01*
X212154Y194307*
G75*
G02X212800Y192751I-1553J-1557*
G01*
G75*
G02Y192750I-2820J0*
G01*
X262000*
G75*
G02X269200I3600*
G01*
X311231*
G37*
X354461Y205250D02*
G36*
G75*
G02X346739I-3861J2500D01*
G01*
X321605*
G75*
G02X325700Y200250I-1005J-5000*
G01*
G75*
G02X325691Y199948I-5259J7*
G01*
G75*
G02X327568Y198734I-91J-2198*
G01*
X330560Y192750*
X475300*
Y205250*
X382700*
G75*
G02X373500I-4600*
G01*
X354461*
G37*
X261739Y210250D02*
G36*
X257700D01*
G75*
G02X248500I-4600*
G01*
X240200*
G75*
G02X231000I-4600*
G01*
X227700*
G75*
G02X218500I-4600*
G01*
X215200*
G75*
G02X206000I-4600*
G01*
X43400*
Y205250*
X175900*
G75*
G02X178100Y207450I2200*
G01*
X198100*
G75*
G02X199657Y206804I1J-2199*
G01*
X201211Y205250*
X261739*
G75*
G02X261000Y207750I3861J2500*
G01*
G75*
G02X261739Y210250I4600*
G01*
G37*
X346739D02*
G36*
X342700D01*
G75*
G02X333500I-4600*
G01*
X307700*
G75*
G02X298500I-4600*
G01*
X295200*
G75*
G02X286000I-4600*
G01*
X282700*
G75*
G02X273500I-4600*
G01*
X269461*
G75*
G02X270200Y207750I-3861J-2500*
G01*
G75*
G02X269461Y205250I-4600*
G01*
X319595*
G75*
G02X321605I1005J-5001*
G01*
X346739*
G75*
G02X346000Y207750I3861J2500*
G01*
G75*
G02X346739Y210250I4600*
G01*
G37*
X354461D02*
G36*
G75*
G02X355200Y207750I-3861J-2500D01*
G01*
G75*
G02X354461Y205250I-4600*
G01*
X373500*
G75*
G02X382700I4600*
G01*
X475300*
Y210250*
X354461*
G37*
X43400Y215250D02*
G36*
Y210250D01*
X206000*
G75*
G02X215200I4600*
G01*
X218500*
G75*
G02X227700I4600*
G01*
X231000*
G75*
G02X240200I4600*
G01*
X248500*
G75*
G02X257700I4600*
G01*
X261739*
G75*
G02X269461I3861J-2500*
G01*
X273500*
G75*
G02X282700I4600*
G01*
X286000*
G75*
G02X295200I4600*
G01*
X298500*
G75*
G02X307700I4600*
G01*
X333500*
G75*
G02X342700I4600*
G01*
X346739*
G75*
G02X354461I3861J-2500*
G01*
X475300*
Y215250*
X182700*
G75*
G02X173500I-4600*
G01*
X43400*
G37*
X426961Y220250D02*
G36*
G75*
G02X419239I-3861J2500D01*
G01*
X382700*
G75*
G02X373500I-4600*
G01*
X43400*
Y215250*
X173500*
G75*
G02X182700I4600*
G01*
X475300*
Y220250*
X426961*
G37*
X419239Y225250D02*
G36*
X410691D01*
G75*
G02X405509I-2591J2500*
G01*
X355691*
G75*
G02X350509I-2591J2500*
G01*
X337878*
G75*
G02X337030Y224713I-848J401*
G01*
X330194*
G75*
G02X329675Y224870I1J941*
G01*
G75*
G02X329156Y224713I-520J785*
G01*
X322320*
G75*
G02X321472Y225250J938*
G01*
X314256*
G75*
G02X313407Y224713I-848J401*
G01*
X306572*
G75*
G02X305724Y225250J938*
G01*
X290691*
G75*
G02X285509I-2591J2500*
G01*
X282750*
G75*
G02X281911Y224733I-839J421*
G01*
X275076*
G75*
G02X274557Y224889I1J941*
G01*
G75*
G02X274037Y224733I-520J785*
G01*
X267202*
G75*
G02X266683Y224889I1J941*
G01*
G75*
G02X266163Y224733I-520J785*
G01*
X259328*
G75*
G02X258809Y224889I1J941*
G01*
G75*
G02X258289Y224733I-520J785*
G01*
X251454*
G75*
G02X250615Y225250J938*
G01*
X245691*
G75*
G02X240509I-2591J2500*
G01*
X235506*
G75*
G02X234667Y224733I-839J421*
G01*
X227832*
G75*
G02X226993Y225250J938*
G01*
X219748*
G75*
G02X218900Y224713I-848J401*
G01*
X212064*
G75*
G02X211545Y224870I1J941*
G01*
G75*
G02X211026Y224713I-520J785*
G01*
X204190*
G75*
G02X203342Y225250J938*
G01*
X48191*
G75*
G02X43400Y224900I-2591J2500*
G01*
Y220250*
X373500*
G75*
G02X382700I4600*
G01*
X419239*
G75*
G02X418500Y222750I3861J2500*
G01*
G75*
G02X419239Y225250I4600*
G01*
G37*
X426961D02*
G36*
G75*
G02X427700Y222750I-3861J-2500D01*
G01*
G75*
G02X426961Y220250I-4600*
G01*
X475300*
Y225250*
X461700*
G75*
G02X454500I-3600*
G01*
X426961*
G37*
X203252Y230270D02*
G36*
X196700D01*
G75*
G02Y230250I-3604J-10*
G01*
G75*
G02X189500I-3600*
G01*
G75*
G02Y230270I3604J10*
G01*
X141700*
G75*
G02Y230250I-3604J-10*
G01*
G75*
G02X134500I-3600*
G01*
G75*
G02Y230270I3604J10*
G01*
X48171*
G75*
G02X49200Y227750I-2571J-2520*
G01*
G75*
G02X48191Y225250I-3600J0*
G01*
X203342*
G75*
G02X203252Y225651I848J401*
G01*
Y230270*
G37*
X226894D02*
G36*
X219838D01*
Y225651*
G75*
G02X219748Y225250I-938*
G01*
X226993*
G75*
G02X226894Y225671I839J421*
G01*
Y230270*
G37*
X240509Y225250D02*
G36*
G75*
G02X239500Y227750I2591J2500D01*
G01*
G75*
G02X240529Y230270I3600*
G01*
X235606*
Y225671*
G75*
G02X235506Y225250I-938*
G01*
X240509*
G37*
X250516Y230270D02*
G36*
X245671D01*
G75*
G02X246700Y227750I-2571J-2520*
G01*
G75*
G02X245691Y225250I-3600J0*
G01*
X250615*
G75*
G02X250516Y225671I839J421*
G01*
Y230270*
G37*
X285509Y225250D02*
G36*
G75*
G02X284500Y227750I2591J2500D01*
G01*
G75*
G02X285529Y230270I3600*
G01*
X282850*
Y225671*
G75*
G02X282750Y225250I-938*
G01*
X285509*
G37*
X305634Y230270D02*
G36*
X290671D01*
G75*
G02X291700Y227750I-2571J-2520*
G01*
G75*
G02X290691Y225250I-3600J0*
G01*
X305724*
G75*
G02X305634Y225651I848J401*
G01*
Y230270*
G37*
X321382D02*
G36*
X314346D01*
Y225651*
G75*
G02X314256Y225250I-938*
G01*
X321472*
G75*
G02X321382Y225651I848J401*
G01*
Y230270*
G37*
X350509Y225250D02*
G36*
G75*
G02X349500Y227750I2591J2500D01*
G01*
G75*
G02X350529Y230270I3600*
G01*
X337968*
Y225651*
G75*
G02X337878Y225250I-938*
G01*
X350509*
G37*
X405509D02*
G36*
G75*
G02X404500Y227750I2591J2500D01*
G01*
G75*
G02X405529Y230270I3600*
G01*
X355671*
G75*
G02X356700Y227750I-2571J-2520*
G01*
G75*
G02X355691Y225250I-3600J0*
G01*
X405509*
G37*
X446207Y230270D02*
G36*
G75*
G02X439993I-3107J7480D01*
G01*
X410671*
G75*
G02X411700Y227750I-2571J-2520*
G01*
G75*
G02X410691Y225250I-3600J0*
G01*
X419239*
G75*
G02X426961I3861J-2500*
G01*
X454500*
G75*
G02X461700I3600*
G01*
X475300*
Y230270*
X446207*
G37*
X435000Y237750D02*
G36*
X427700D01*
Y237750*
G75*
G02X423100Y233150I-4600*
G01*
G75*
G02X418500Y237750J4600*
G01*
Y237750*
X397700*
G75*
G02X393100Y233150I-4600*
G01*
G75*
G02X388500Y237750J4600*
G01*
Y237750*
X382700*
G75*
G02X373500I-4600*
G01*
X43400*
Y230600*
G75*
G02X48171Y230270I2200J-2850*
G01*
X134500*
G75*
G02X141700I3600J-20*
G01*
X189500*
G75*
G02X196700I3600J-20*
G01*
X203252*
Y234849*
G75*
G02X204190Y235787I938*
G01*
X211026*
G75*
G02X211545Y235630I-1J-941*
G01*
G75*
G02X212064Y235787I520J-785*
G01*
X218900*
G75*
G02X219838Y234849J-938*
G01*
Y230270*
X226894*
Y234869*
G75*
G02X227832Y235807I938*
G01*
X234667*
G75*
G02X235606Y234869J-938*
G01*
Y230270*
X240529*
G75*
G02X245671I2571J-2520*
G01*
X250516*
Y234869*
G75*
G02X251454Y235807I938*
G01*
X258289*
G75*
G02X258809Y235650I-1J-941*
G01*
G75*
G02X259328Y235807I520J-785*
G01*
X266163*
G75*
G02X266683Y235650I-1J-941*
G01*
G75*
G02X267202Y235807I520J-785*
G01*
X274037*
G75*
G02X274557Y235650I-1J-941*
G01*
G75*
G02X275076Y235807I520J-785*
G01*
X281911*
G75*
G02X282850Y234869J-938*
G01*
Y230270*
X285529*
G75*
G02X290671I2571J-2520*
G01*
X305634*
Y234849*
G75*
G02X306572Y235787I938*
G01*
X313407*
G75*
G02X314346Y234849J-938*
G01*
Y230270*
X321382*
Y234849*
G75*
G02X322320Y235787I938*
G01*
X329156*
G75*
G02X329675Y235630I-1J-941*
G01*
G75*
G02X330194Y235787I520J-785*
G01*
X337030*
G75*
G02X337968Y234849J-938*
G01*
Y230270*
X350529*
G75*
G02X355671I2571J-2520*
G01*
X405529*
G75*
G02X410671I2571J-2520*
G01*
X439993*
G75*
G02X435000Y237750I3107J7480*
G01*
G37*
X451200D02*
G36*
G75*
G02X446207Y230270I-8100D01*
G01*
X475300*
Y237750*
X451200*
G37*
X469128Y247626D02*
G36*
Y241596D01*
X457072*
Y247626*
X298065*
G75*
G02X293135I-2465J2624*
G01*
X43400*
Y237750*
X373500*
G75*
G02X382700I4600*
G01*
X388500*
Y237750*
G75*
G02X393100Y242350I4600*
G01*
G75*
G02X397700Y237750J-4600*
G01*
X418500*
Y237750*
G75*
G02X423100Y242350I4600*
G01*
G75*
G02X427700Y237750J-4600*
G01*
Y237750*
X435000*
G75*
G02X451200I8100*
G01*
X475300*
Y247626*
X469128*
G37*
X80691Y260250D02*
G36*
G75*
G02X75509I-2591J2500D01*
G01*
X60691*
G75*
G02X55509I-2591J2500*
G01*
X43400*
Y247626*
X293135*
G75*
G02X292000Y250250I2465J2624*
G01*
G75*
G02X299200I3600*
G01*
G75*
G02X298065Y247626I-3600*
G01*
X457072*
Y253656*
X469128*
Y247626*
X475300*
Y260250*
X306700*
G75*
G02X299500I-3600*
G01*
X80691*
G37*
X451658Y270250D02*
G36*
G75*
G02X443912I-3873J5000D01*
G01*
X427248*
G75*
G02X419503I-3873J5000*
G01*
X401700*
G75*
G02X394500I-3600*
G01*
X43400*
Y260250*
X55509*
G75*
G02X54500Y262750I2591J2500*
G01*
G75*
G02X61700I3600*
G01*
G75*
G02X60691Y260250I-3600J0*
G01*
X75509*
G75*
G02X74500Y262750I2591J2500*
G01*
G75*
G02X81700I3600*
G01*
G75*
G02X80691Y260250I-3600J0*
G01*
X299500*
G75*
G02X306700I3600*
G01*
X475300*
Y270250*
X451658*
G37*
X417051Y275250D02*
G36*
X381961D01*
G75*
G02X374239I-3861J2500*
G01*
X77698*
Y272152*
X68502*
Y275250*
X67698*
Y272152*
X58502*
Y275250*
X43400*
Y270250*
X394500*
G75*
G02X401700I3600*
G01*
X419503*
G75*
G02X417051Y275250I3873J5000*
G01*
G37*
X441461D02*
G36*
X429700D01*
G75*
G02X427248Y270250I-6324*
G01*
X443912*
G75*
G02X441461Y275250I3873J5000*
G01*
G37*
X454109D02*
G36*
G75*
G02X451658Y270250I-6324D01*
G01*
X475300*
Y275250*
X454109*
G37*
X58502Y282750D02*
G36*
X43400D01*
Y275250*
X58502*
Y282750*
G37*
X68502D02*
G36*
X67698D01*
Y275250*
X68502*
Y282750*
G37*
X412700D02*
G36*
Y282750D01*
G75*
G02X408100Y278150I-4600*
G01*
G75*
G02X403500Y282750J4600*
G01*
Y282750*
X397700*
Y282750*
G75*
G02X393100Y278150I-4600*
G01*
G75*
G02X388500Y282750J4600*
G01*
Y282750*
X359200*
G75*
G02X352000I-3600*
G01*
X306700*
G75*
G02X299500I-3600*
G01*
X241700*
G75*
G02X234500I-3600*
G01*
X181700*
G75*
G02X174500I-3600*
G01*
X139200*
G75*
G02X132000I-3600*
G01*
X77698*
Y275250*
X374239*
G75*
G02X373500Y277750I3861J2500*
G01*
G75*
G02X382700I4600*
G01*
G75*
G02X381961Y275250I-4600*
G01*
X417051*
G75*
G02X429700I6324*
G01*
X441461*
G75*
G02X454109I6324*
G01*
X475300*
Y282750*
X464200*
G75*
G02X457000I-3600*
G01*
X412700*
G37*
X56972Y287750D02*
G36*
G75*
G02X44228I-6372J5000D01*
G01*
X43400*
Y282750*
X58502*
Y283348*
X67698*
Y282750*
X68502*
Y283348*
X77698*
Y282750*
X132000*
G75*
G02X139200I3600*
G01*
X174500*
G75*
G02X181700I3600*
G01*
X234500*
G75*
G02X241700I3600*
G01*
X299500*
G75*
G02X306700I3600*
G01*
X352000*
G75*
G02X359200I3600*
G01*
X388500*
Y282750*
G75*
G02X393100Y287350I4600*
G01*
G75*
G02X397700Y282750J-4600*
G01*
Y282750*
X403500*
Y282750*
G75*
G02X408100Y287350I4600*
G01*
G75*
G02X412700Y282750J-4600*
G01*
Y282750*
X457000*
G75*
G02X464200I3600*
G01*
X475300*
Y287750*
X286700*
G75*
G02X279500I-3600*
G01*
X56972*
G37*
X44228D02*
G36*
G75*
G02X43400Y289039I6373J5000D01*
G01*
Y287750*
X44228*
G37*
X439433Y299950D02*
G36*
G75*
G02X441905Y294935I-3853J-5015D01*
G01*
G75*
G02X435580Y288611I-6324*
G01*
G75*
G02X429256Y294935J6324*
G01*
G75*
G02X431727Y299950I6324*
G01*
X243450*
G75*
G02X244200Y297750I-2850J-2200*
G01*
G75*
G02X237000I-3600*
G01*
G75*
G02X237750Y299950I3600*
G01*
X150950*
G75*
G02X151700Y297750I-2850J-2200*
G01*
G75*
G02X144500I-3600*
G01*
G75*
G02X145250Y299950I3600*
G01*
X83450*
G75*
G02X84200Y297750I-2850J-2200*
G01*
G75*
G02X77000I-3600*
G01*
G75*
G02X77750Y299950I3600*
G01*
X54311*
G75*
G02X58700Y292750I-3711J-7200*
G01*
G75*
G02X56972Y287750I-8100J0*
G01*
X279500*
G75*
G02X286700I3600*
G01*
X475300*
Y299950*
X439433*
G37*
D02*
D11*
X153100Y150250D02*
Y170250D01*
Y150250D02*
X155600Y147750D01*
X160600*
X153100Y172750D02*
Y170250D01*
X178100Y200250D02*
X170600D01*
X160600Y190250*
Y182750*
Y180250*
X153100Y172750*
X178100Y200250D02*
X190600D01*
X208100Y182750*
X238100*
X250600Y170250*
X253100*
X200600Y172750D02*
X203100D01*
X220600Y155250*
X303100*
X305600Y157750*
X313100*
X315600Y155250*
Y152750*
X328100*
X330600Y150250*
X340600*
X343100Y147750*
X370600*
X388100Y165250*
Y180250*
X253100Y170250D02*
X258100D01*
X265600Y177750*
X270600*
X278100Y170250*
X310600Y60250D02*
Y77750D01*
X318100Y85250*
X355600*
X358100Y82750*
X365600*
X375600Y72750*
X378100Y180250D02*
X330600D01*
X325600Y175250*
X305600*
X303100Y177750*
X285600*
X278100Y170250*
D02*
D12*
X207608Y230250D03*
X215482D03*
X231250Y230270D03*
X254872D03*
X262746D03*
X270620D03*
X278494D03*
X309990Y230250D03*
X325738D03*
X333612D03*
D02*
D13*
X55600Y145250D03*
X63100Y162750D03*
Y177750D03*
X95600Y145250D03*
X150600Y90250D03*
Y130250D03*
X160600Y147750D03*
Y160250D03*
Y172750D03*
X165600Y185250D03*
X178100Y200250D03*
Y215250D03*
X195600Y185250D03*
X200600Y147750D03*
Y160250D03*
Y172750D03*
X210600Y170250D03*
Y210250D03*
X218100Y117750D03*
Y150250D03*
X223100Y170250D03*
Y210250D03*
X233100Y117750D03*
Y150250D03*
X235600Y170250D03*
Y210250D03*
X245600Y137750D03*
X253100Y170250D03*
Y210250D03*
X258100Y160250D03*
X265600Y177750D03*
Y207750D03*
X268100Y147750D03*
X278100Y170250D03*
Y210250D03*
X285600Y137750D03*
X290600Y170250D03*
Y210250D03*
X298100Y147750D03*
Y160250D03*
X303100Y170250D03*
Y210250D03*
X320600Y142750D03*
Y157750D03*
X338100Y170250D03*
Y210250D03*
X350600Y167750D03*
Y207750D03*
X363100Y140250D03*
Y155250D03*
X375600Y72750D03*
Y112750D03*
X378100Y205250D03*
Y220250D03*
Y237750D03*
Y277750D03*
X390600Y147750D03*
X393100Y237750D03*
Y282750D03*
X408100D03*
X423100Y182750D03*
Y222750D03*
Y237750D03*
X430600Y147750D03*
X440600Y155250D03*
Y185250D03*
D02*
D14*
X398100Y180250D03*
D02*
D15*
X378100D03*
X388100D03*
D02*
D16*
X423376Y275250D03*
X435580Y294935D03*
X447785Y275250D03*
D02*
D17*
X155600Y60250D03*
X175600D03*
X195600D03*
X233100D03*
X253100D03*
X273100D03*
X310600D03*
X330600D03*
X350600D03*
D02*
D18*
X56939Y69128D03*
Y133026D03*
X106939Y69128D03*
Y133026D03*
X411761Y69974D03*
Y133872D03*
X461761Y69974D03*
Y133872D03*
D02*
D19*
X463100Y247626D03*
D02*
D70*
Y176800D03*
D02*
D71*
X45600Y160250D03*
Y227750D03*
X58100Y262750D03*
X63100Y190250D03*
X70600Y92750D03*
X78100Y262750D03*
X80600Y130250D03*
Y145250D03*
Y297750D03*
X85600Y162750D03*
X98100Y167750D03*
X100600Y102750D03*
X118100Y77750D03*
Y125250D03*
X123100Y147750D03*
Y165250D03*
X130600Y50250D03*
X133100Y185250D03*
X135600Y282750D03*
X138100Y230250D03*
X143100Y152750D03*
X145600Y57750D03*
X148100Y297750D03*
X153100Y170250D03*
X163100Y130250D03*
X175600Y162750D03*
X178100Y282750D03*
X188100Y77750D03*
Y140250D03*
X193100Y115250D03*
Y230250D03*
X200600Y197750D03*
X208100Y57750D03*
X220600D03*
X223100Y47750D03*
Y105250D03*
Y137750D03*
X225600Y160250D03*
X238100Y282750D03*
X240600Y297750D03*
X243100Y127750D03*
Y227750D03*
X250600Y115250D03*
Y150250D03*
X255600Y87750D03*
X260600Y122750D03*
Y137750D03*
X265600Y52750D03*
Y192750D03*
X275600Y125250D03*
X283100Y107750D03*
Y287750D03*
X285600Y145250D03*
X288100Y227750D03*
X290600Y67750D03*
X295600Y250250D03*
X298100Y50250D03*
Y110250D03*
X303100Y260250D03*
Y282750D03*
X310600Y87750D03*
Y147750D03*
X313100Y132750D03*
X320600Y75250D03*
X325600Y137750D03*
X330600Y112750D03*
X353100Y152750D03*
Y227750D03*
X355600Y282750D03*
X375600Y92750D03*
X378100Y130250D03*
X393100Y47750D03*
X395600Y170250D03*
X398100Y270250D03*
X400600Y60250D03*
Y100250D03*
Y160250D03*
X408100Y227750D03*
X420600Y125250D03*
X423100Y97750D03*
X428100Y187750D03*
X430600Y110250D03*
X438100Y52750D03*
X453100Y122750D03*
X455600Y185250D03*
X458100Y225250D03*
X460600Y82750D03*
Y282750D03*
D02*
D79*
X108100Y150250D03*
Y160250D03*
Y170250D03*
X178100Y105250D03*
Y115250D03*
Y125250D03*
X320600Y180250D03*
Y190250D03*
Y200250D03*
D02*
D80*
X63100Y277750D03*
X73100D03*
D02*
D83*
X45600Y159250D02*
Y156250D01*
Y161250D02*
Y164250D01*
Y226750D02*
Y223750D01*
Y228750D02*
Y231750D01*
X46600Y160250D02*
X49600D01*
X46600Y227750D02*
X49600D01*
X53805Y69128D02*
X50805D01*
X53805Y133026D02*
X50805D01*
X56939Y65994D02*
Y62994D01*
Y72262D02*
Y75262D01*
Y129892D02*
Y126892D01*
Y136159D02*
Y139159D01*
X57100Y262750D02*
X54100D01*
X58100Y261750D02*
Y258750D01*
Y263750D02*
Y266750D01*
X59100Y262750D02*
X62100D01*
X60072Y69128D02*
X63072D01*
X60072Y133026D02*
X63072D01*
X62100Y190250D02*
X59100D01*
X63100Y189250D02*
Y186250D01*
Y191250D02*
Y194250D01*
X64100Y190250D02*
X67100D01*
X69600Y92750D02*
X66600D01*
X70600Y91750D02*
Y88750D01*
Y93750D02*
Y96750D01*
X71100Y277750D02*
X68100D01*
X71600Y92750D02*
X74600D01*
X73100Y274750D02*
Y271750D01*
Y280750D02*
Y283750D01*
X75100Y277750D02*
X78100D01*
X77100Y262750D02*
X74100D01*
X78100Y261750D02*
Y258750D01*
Y263750D02*
Y266750D01*
X79100Y262750D02*
X82100D01*
X79600Y130250D02*
X76600D01*
X79600Y145250D02*
X76600D01*
X79600Y297750D02*
X76600D01*
X80600Y129250D02*
Y126250D01*
Y131250D02*
Y134250D01*
Y144250D02*
Y141250D01*
Y146250D02*
Y149250D01*
Y296750D02*
Y293750D01*
X81600Y130250D02*
X84600D01*
X81600Y145250D02*
X84600D01*
X81600Y297750D02*
X84600D01*
Y162750D02*
X81600D01*
X85600Y161750D02*
Y158750D01*
Y163750D02*
Y166750D01*
X86600Y162750D02*
X89600D01*
X97100Y167750D02*
X94100D01*
X98100Y166750D02*
Y163750D01*
Y168750D02*
Y171750D01*
X99100Y167750D02*
X102100D01*
X99600Y102750D02*
X96600D01*
X100600Y101750D02*
Y98750D01*
Y103750D02*
Y106750D01*
X101600Y102750D02*
X104600D01*
X117100Y77750D02*
X114100D01*
X117100Y125250D02*
X114100D01*
X118100Y76750D02*
Y73750D01*
Y78750D02*
Y81750D01*
Y124250D02*
Y121250D01*
Y126250D02*
Y129250D01*
X119100Y77750D02*
X122100D01*
X119100Y125250D02*
X122100D01*
Y147750D02*
X119100D01*
X122100Y165250D02*
X119100D01*
X123100Y146750D02*
Y143750D01*
Y148750D02*
Y151750D01*
Y164250D02*
Y161250D01*
Y166250D02*
Y169250D01*
X124100Y147750D02*
X127100D01*
X124100Y165250D02*
X127100D01*
X129600Y50250D02*
X126600D01*
X130600Y49250D02*
Y46250D01*
Y51250D02*
Y54250D01*
X131600Y50250D02*
X134600D01*
X132100Y185250D02*
X129100D01*
X133100Y184250D02*
Y181250D01*
Y186250D02*
Y189250D01*
X134100Y185250D02*
X137100D01*
X134600Y282750D02*
X131600D01*
X135600Y281750D02*
Y278750D01*
Y283750D02*
Y286750D01*
X136600Y282750D02*
X139600D01*
X137100Y230250D02*
X134100D01*
X138100Y229250D02*
Y226250D01*
Y231250D02*
Y234250D01*
X139100Y230250D02*
X142100D01*
Y152750D02*
X139100D01*
X143100Y151750D02*
Y148750D01*
Y153750D02*
Y156750D01*
X144100Y152750D02*
X147100D01*
X144600Y57750D02*
X141600D01*
X145600Y56750D02*
Y53750D01*
Y58750D02*
Y61750D01*
X147100Y297750D02*
X144100D01*
X148100Y296750D02*
Y293750D01*
X148600Y90250D02*
X145600D01*
X149100Y297750D02*
X152100D01*
X150600Y88250D02*
Y85250D01*
Y92250D02*
Y95250D01*
X152600Y90250D02*
X155600D01*
X162100Y130250D02*
X159100D01*
X163100Y129250D02*
Y126250D01*
Y131250D02*
Y134250D01*
X164100Y130250D02*
X167100D01*
X165600Y183250D02*
Y180250D01*
Y187250D02*
Y190250D01*
X167600Y185250D02*
X170600D01*
X174600Y162750D02*
X171600D01*
X175600Y161750D02*
Y158750D01*
Y163750D02*
Y166750D01*
X176100Y215250D02*
X173100D01*
X176600Y162750D02*
X179600D01*
X177100Y282750D02*
X174100D01*
X178100Y213250D02*
Y210250D01*
Y217250D02*
Y220250D01*
Y281750D02*
Y278750D01*
Y283750D02*
Y286750D01*
X179100Y282750D02*
X182100D01*
X180100Y200250D02*
X183100D01*
X180100Y215250D02*
X183100D01*
X187100Y77750D02*
X184100D01*
X187100Y140250D02*
X184100D01*
X188100Y76750D02*
Y73750D01*
Y78750D02*
Y81750D01*
Y139250D02*
Y136250D01*
Y141250D02*
Y144250D01*
X189100Y77750D02*
X192100D01*
X189100Y140250D02*
X192100D01*
Y115250D02*
X189100D01*
X192100Y230250D02*
X189100D01*
X193100Y114250D02*
Y111250D01*
Y116250D02*
Y119250D01*
Y229250D02*
Y226250D01*
Y231250D02*
Y234250D01*
X194100Y115250D02*
X197100D01*
X194100Y230250D02*
X197100D01*
X195600Y183250D02*
Y180250D01*
X198600Y172750D02*
X195600D01*
X199186Y158836D02*
X197065Y156715D01*
X200600Y170750D02*
Y167750D01*
Y174750D02*
Y177750D01*
X207100Y57750D02*
X204100D01*
X208100Y56750D02*
Y53750D01*
Y58750D02*
Y61750D01*
X208600Y170250D02*
X205600D01*
X209100Y57750D02*
X212100D01*
X210600Y168250D02*
Y165250D01*
X219600Y57750D02*
X216600D01*
X220600Y56750D02*
Y53750D01*
Y58750D02*
Y61750D01*
X221600Y57750D02*
X224600D01*
X222100Y47750D02*
X219100D01*
X222100Y105250D02*
X219100D01*
X222100Y137750D02*
X219100D01*
X223100Y48750D02*
Y51750D01*
Y104250D02*
Y101250D01*
Y106250D02*
Y109250D01*
Y136750D02*
Y133750D01*
Y138750D02*
Y141750D01*
X224100Y47750D02*
X227100D01*
X224100Y105250D02*
X227100D01*
X224100Y137750D02*
X227100D01*
X227850Y60250D02*
X224850D01*
X233100Y55000D02*
Y52000D01*
Y65500D02*
Y68500D01*
X237100Y282750D02*
X234100D01*
X238100Y281750D02*
Y278750D01*
Y283750D02*
Y286750D01*
X238350Y60250D02*
X241350D01*
X239100Y282750D02*
X242100D01*
X239600Y297750D02*
X236600D01*
X240600Y296750D02*
Y293750D01*
X241600Y297750D02*
X244600D01*
X242100Y127750D02*
X239100D01*
X242100Y227750D02*
X239100D01*
X243100Y126750D02*
Y123750D01*
Y128750D02*
Y131750D01*
Y226750D02*
Y223750D01*
Y228750D02*
Y231750D01*
X244100Y127750D02*
X247100D01*
X244100Y227750D02*
X247100D01*
X247850Y60250D02*
X244850D01*
X249600Y115250D02*
X246600D01*
X250600Y114250D02*
Y111250D01*
Y116250D02*
Y119250D01*
Y149250D02*
Y146250D01*
X251100Y170250D02*
X248100D01*
X251600Y115250D02*
X254600D01*
X253100Y55000D02*
Y52000D01*
Y65500D02*
Y68500D01*
Y172250D02*
Y175250D01*
X254600Y87750D02*
X251600D01*
X255100Y170250D02*
X258100D01*
X255600Y86750D02*
Y83750D01*
Y88750D02*
Y91750D01*
X256600Y87750D02*
X259600D01*
X258350Y60250D02*
X261350D01*
X259600Y122750D02*
X256600D01*
X259600Y137750D02*
X256600D01*
X260600Y121750D02*
Y118750D01*
Y123750D02*
Y126750D01*
Y136750D02*
Y133750D01*
Y138750D02*
Y141750D01*
X261600Y122750D02*
X264600D01*
X261600Y137750D02*
X264600D01*
X262746Y227333D02*
Y224333D01*
Y233207D02*
Y236207D01*
X263600Y177750D02*
X260600D01*
X263600Y207750D02*
X260600D01*
X264600Y52750D02*
X261600D01*
X264600Y192750D02*
X261600D01*
X265600Y51750D02*
Y48750D01*
Y53750D02*
Y56750D01*
Y175750D02*
Y172750D01*
Y179750D02*
Y182750D01*
Y191750D02*
Y188750D01*
Y193750D02*
Y196750D01*
Y205750D02*
Y202750D01*
Y209750D02*
Y212750D01*
X266600Y52750D02*
X269600D01*
X266600Y192750D02*
X269600D01*
X267600Y177750D02*
X270600D01*
X267600Y207750D02*
X270600D01*
X270620Y227333D02*
Y224333D01*
Y233207D02*
Y236207D01*
X274600Y125250D02*
X271600D01*
X275600Y124250D02*
Y121250D01*
Y126250D02*
Y129250D01*
X276100Y170250D02*
X273100D01*
X276600Y125250D02*
X279600D01*
X278100Y172250D02*
Y175250D01*
X280100Y170250D02*
X283100D01*
X282100Y107750D02*
X279100D01*
X282100Y287750D02*
X279100D01*
X283100Y106750D02*
Y103750D01*
Y108750D02*
Y111750D01*
Y286750D02*
Y283750D01*
Y288750D02*
Y291750D01*
X283600Y137750D02*
X280600D01*
X284100Y107750D02*
X287100D01*
X284100Y287750D02*
X287100D01*
X284600Y145250D02*
X281600D01*
X285600Y135750D02*
Y132750D01*
Y146250D02*
Y149250D01*
X286600Y145250D02*
X289600D01*
X287100Y227750D02*
X284100D01*
X287600Y137750D02*
X290600D01*
X288100Y226750D02*
Y223750D01*
Y228750D02*
Y231750D01*
X289100Y227750D02*
X292100D01*
X289600Y67750D02*
X286600D01*
X290600Y66750D02*
Y63750D01*
Y68750D02*
Y71750D01*
X291600Y67750D02*
X294600D01*
Y250250D02*
X291600D01*
X295600Y249250D02*
Y246250D01*
Y251250D02*
Y254250D01*
X296600Y250250D02*
X299600D01*
X297100Y50250D02*
X294100D01*
X297100Y110250D02*
X294100D01*
X298100Y49250D02*
Y46250D01*
Y51250D02*
Y54250D01*
Y109250D02*
Y106250D01*
Y111250D02*
Y114250D01*
X299100Y50250D02*
X302100D01*
X299100Y110250D02*
X302100D01*
X300100Y120250D02*
X297100D01*
X302100Y260250D02*
X299100D01*
X302100Y282750D02*
X299100D01*
X303100Y117250D02*
Y114250D01*
Y123250D02*
Y126250D01*
Y259250D02*
Y256250D01*
Y261250D02*
Y264250D01*
Y281750D02*
Y278750D01*
Y283750D02*
Y286750D01*
X304100Y260250D02*
X307100D01*
X304100Y282750D02*
X307100D01*
X306100Y120250D02*
X309100D01*
X309600Y87750D02*
X306600D01*
X309600Y147750D02*
X306600D01*
X310600Y86750D02*
Y83750D01*
Y88750D02*
Y91750D01*
Y146750D02*
Y143750D01*
X311600Y87750D02*
X314600D01*
X311600Y147750D02*
X314600D01*
X312100Y132750D02*
X309100D01*
X313100Y131750D02*
Y128750D01*
Y133750D02*
Y136750D01*
X314100Y132750D02*
X317100D01*
X318100Y180250D02*
X315100D01*
X319600Y75250D02*
X316600D01*
X320600Y74250D02*
Y71250D01*
Y76250D02*
Y79250D01*
Y177750D02*
Y174750D01*
X321600Y75250D02*
X324600D01*
X323100Y180250D02*
X326100D01*
X324600Y137750D02*
X321600D01*
X325600Y136750D02*
Y133750D01*
Y138750D02*
Y141750D01*
X326600Y137750D02*
X329600D01*
Y112750D02*
X326600D01*
X330600Y111750D02*
Y108750D01*
Y113750D02*
Y116750D01*
X331600Y112750D02*
X334600D01*
X348600Y167750D02*
X345600D01*
X350600Y165750D02*
Y162750D01*
X352100Y227750D02*
X349100D01*
X353100Y226750D02*
Y223750D01*
Y228750D02*
Y231750D01*
X354100Y227750D02*
X357100D01*
X354600Y282750D02*
X351600D01*
X355100Y120250D02*
X352100D01*
X355600Y281750D02*
Y278750D01*
Y283750D02*
Y286750D01*
X356600Y282750D02*
X359600D01*
X358100Y117250D02*
Y114250D01*
Y123250D02*
Y126250D01*
X361100Y120250D02*
X364100D01*
X363100Y142250D02*
Y145250D01*
X365100Y140250D02*
X368100D01*
X373600Y112750D02*
X370600D01*
X374600Y92750D02*
X371600D01*
X374600Y180250D02*
X371600D01*
X375600Y91750D02*
Y88750D01*
Y93750D02*
Y96750D01*
Y110750D02*
Y107750D01*
Y114750D02*
Y117750D01*
X376100Y205250D02*
X373100D01*
X376600Y92750D02*
X379600D01*
X377100Y130250D02*
X374100D01*
X377600Y112750D02*
X380600D01*
X378100Y129250D02*
Y126250D01*
Y131250D02*
Y134250D01*
Y176750D02*
Y173750D01*
Y183750D02*
Y186750D01*
Y203250D02*
Y200250D01*
Y207250D02*
Y210250D01*
X379100Y130250D02*
X382100D01*
X380100Y205250D02*
X383100D01*
X388100Y176750D02*
Y173750D01*
X389186Y149164D02*
X387065Y151285D01*
X392100Y47750D02*
X389100D01*
X393100Y48750D02*
Y51750D01*
X394100Y47750D02*
X397100D01*
X395600Y169250D02*
Y166250D01*
X396600Y170250D02*
X399600D01*
X397100Y270250D02*
X394100D01*
X398100Y269250D02*
Y266250D01*
Y271250D02*
Y274250D01*
X399100Y270250D02*
X402100D01*
X399600Y60250D02*
X396600D01*
X399600Y100250D02*
X396600D01*
X399600Y160250D02*
X396600D01*
X400600Y59250D02*
Y56250D01*
Y61250D02*
Y64250D01*
Y99250D02*
Y96250D01*
Y101250D02*
Y104250D01*
Y159250D02*
Y156250D01*
Y161250D02*
Y164250D01*
X401600Y60250D02*
X404600D01*
X401600Y100250D02*
X404600D01*
X401600Y160250D02*
X404600D01*
X406100Y282750D02*
X403100D01*
X407100Y227750D02*
X404100D01*
X408100Y226750D02*
Y223750D01*
Y228750D02*
Y231750D01*
Y280750D02*
Y277750D01*
Y284750D02*
Y287750D01*
X409100Y227750D02*
X412100D01*
X410100Y282750D02*
X413100D01*
X419600Y125250D02*
X416600D01*
X420600Y124250D02*
Y121250D01*
Y126250D02*
Y129250D01*
X421100Y222750D02*
X418100D01*
X421100Y237750D02*
X418100D01*
X421600Y125250D02*
X424600D01*
X422100Y97750D02*
X419100D01*
X423100Y96750D02*
Y93750D01*
Y98750D02*
Y101750D01*
Y220750D02*
Y217750D01*
Y224750D02*
Y227750D01*
Y235750D02*
Y232750D01*
Y239750D02*
Y242750D01*
X424100Y97750D02*
X427100D01*
X425100Y222750D02*
X428100D01*
X425100Y237750D02*
X428100D01*
X427100Y187750D02*
X424100D01*
X428100Y186750D02*
Y183750D01*
Y188750D02*
Y191750D01*
X429100Y187750D02*
X432100D01*
X429600Y110250D02*
X426600D01*
X430600Y109250D02*
Y106250D01*
Y111250D02*
Y114250D01*
X431600Y110250D02*
X434600D01*
X431856Y294935D02*
X428856D01*
X435580Y291211D02*
Y288211D01*
X437100Y52750D02*
X434100D01*
X438100Y51750D02*
Y48750D01*
Y53750D02*
Y56750D01*
X438600Y155250D02*
X435600D01*
X439100Y52750D02*
X442100D01*
X439305Y294935D02*
X442305D01*
X440600Y153250D02*
Y150250D01*
Y157250D02*
Y160250D01*
X442600Y155250D02*
X445600D01*
X444061Y275250D02*
X441061D01*
X447785Y271526D02*
Y268526D01*
Y278974D02*
Y281974D01*
X451509Y275250D02*
X454509D01*
X452100Y122750D02*
X449100D01*
X453100Y121750D02*
Y118750D01*
Y123750D02*
Y126750D01*
X454100Y122750D02*
X457100D01*
X454600Y185250D02*
X451600D01*
X455600Y184250D02*
Y181250D01*
Y186250D02*
Y189250D01*
X456600Y185250D02*
X459600D01*
X457100Y225250D02*
X454100D01*
X458100Y224250D02*
Y221250D01*
Y226250D02*
Y229250D01*
X458628Y69974D02*
X455628D01*
X458628Y133872D02*
X455628D01*
X459100Y225250D02*
X462100D01*
X459600Y82750D02*
X456600D01*
X459600Y282750D02*
X456600D01*
X459671Y176800D02*
X456671D01*
X460600Y81750D02*
Y78750D01*
Y83750D02*
Y86750D01*
Y281750D02*
Y278750D01*
Y283750D02*
Y286750D01*
X461600Y82750D02*
X464600D01*
X461600Y282750D02*
X464600D01*
X461761Y66841D02*
Y63841D01*
Y73108D02*
Y76108D01*
Y130738D02*
Y127738D01*
Y137006D02*
Y140006D01*
X463100Y173370D02*
Y170370D01*
Y180229D02*
Y183229D01*
X464895Y69974D02*
X467895D01*
X464895Y133872D02*
X467895D01*
X466529Y176800D02*
X469529D01*
D02*
D135*
X263100Y110250D03*
X303100Y100250D03*
Y120250D03*
X318100Y110250D03*
X358100Y100250D03*
Y120250D03*
D02*
D139*
X50600Y52750D03*
Y292750D03*
X443100Y237750D03*
X468100Y52750D03*
X0Y0D02*
M02*
