G04 EasyPC Gerber Version 20.0.2 Build 4112 *
G04 #@! TF.Part,Single*
G04 #@! TF.FileFunction,Legend,Top *
%FSLAX35Y35*%
%MOIN*%
%ADD29C,0.00500*%
%ADD74C,0.00700*%
%ADD72C,0.00787*%
%ADD73C,0.00984*%
%ADD11C,0.01000*%
%ADD10C,0.01200*%
X0Y0D02*
D02*
D10*
X59478Y195310D02*
X58263Y195701D01*
X57217Y196378*
X56391Y197299*
X55836Y198419*
X55790Y198538*
X55750Y198629*
X55716Y198746*
X55687Y198939*
X55663Y199260*
X55644Y199760*
X55629Y200488*
X55618Y201499*
X55609Y202841*
X55604Y204567*
X55600Y206727*
X55600Y209373*
X55600Y212556*
X55601Y216327*
X55603Y220737*
X55606Y225838*
X55616Y252235*
X55722Y252609*
X56306Y253944*
X57203Y254999*
X58367Y255734*
X59750Y256109*
X59982Y256115*
X60572Y256120*
X61494Y256125*
X62724Y256129*
X64239Y256133*
X66015Y256137*
X68029Y256141*
X70257Y256143*
X72674Y256146*
X75257Y256148*
X77983Y256150*
X80828Y256152*
X83768Y256154*
X86778Y256154*
X89837Y256155*
X96000*
X99059Y256154*
X102069Y256154*
X105009Y256152*
X107854Y256150*
X110580Y256148*
X113163Y256146*
X115580Y256143*
X117807Y256141*
X119822Y256137*
X121598Y256133*
X123113Y256129*
X124343Y256125*
X125265Y256120*
X125855Y256115*
X126088Y256109*
X127836Y255551*
X129202Y254408*
X129752Y253562*
X130117Y252609*
X130222Y252235*
X130233Y225838*
X130234Y221607*
X130235Y217847*
X130236Y214532*
Y211631*
X130235Y209120*
X130235Y206968*
X130233Y205148*
X130231Y203633*
X130228Y202393*
X130224Y201402*
X130219Y200632*
X130213Y200053*
X130206Y199639*
X130199Y199362*
X130190Y199194*
X130181Y199106*
X129989Y198378*
X129692Y197706*
X129292Y197091*
X128790Y196534*
X127662Y195737*
X126329Y195307*
X126228Y195298*
X126019Y195289*
X125671Y195282*
X125146Y195276*
X124414Y195270*
X123439Y195265*
X122187Y195261*
X120624Y195257*
X118718Y195255*
X116433Y195253*
X113737Y195252*
X110594Y195251*
X106970Y195250*
X102834*
X98150Y195251*
X92884*
X87817Y195252*
X83279Y195252*
X79244Y195254*
X75683Y195254*
X72565Y195256*
X69865Y195258*
X67551Y195261*
X65597Y195263*
X63974Y195267*
X62653Y195271*
X61606Y195276*
X60804Y195281*
X60219Y195287*
X59821Y195294*
X59583Y195302*
X59478Y195310*
X62637Y200820D02*
X62012Y201002D01*
X61522Y201295*
X61161Y201706*
X60922Y202238*
X60910Y202294*
X60900Y202400*
X60890Y202583*
X60882Y202874*
X60876Y203302*
X60870Y203894*
X60865Y204681*
X60860Y205692*
X60856Y206956*
X60853Y208501*
X60850Y210358*
X60848Y212555*
X60846Y215121*
X60844Y218085*
X60842Y221478*
X60840Y225326*
X60838Y230889*
X60837Y235644*
X60838Y239617*
X60841Y242833*
X60846Y245317*
X60852Y247093*
X60861Y248187*
X60871Y248623*
X61067Y249525*
X61469Y250184*
X62096Y250615*
X62961Y250836*
X63215Y250847*
X63796Y250857*
X64734Y250864*
X66065Y250869*
X67820Y250871*
X70034Y250872*
X72740Y250872*
X75970Y250869*
X88608Y250856*
X88973Y250770*
X89624Y250585*
X90189Y250345*
X90694Y250038*
X91167Y249649*
X91878Y248780*
X92359Y247727*
X92437Y247485*
X92494Y247228*
X92535Y246812*
X92561Y246093*
X92576Y244926*
X92582Y243167*
X92584Y240672*
Y233959*
X92582Y231486*
X92576Y229736*
X92563Y228570*
X92539Y227847*
X92503Y227427*
X92451Y227172*
X92382Y226940*
X92026Y226099*
X91503Y225353*
X90831Y224726*
X90035Y224242*
X89291Y223965*
X88383Y223789*
X87634Y223667*
X87163Y223527*
X86892Y223331*
X86743Y223046*
X86709Y222852*
X86700Y222594*
X86715Y222341*
X86752Y222163*
X86918Y221938*
X87229Y221757*
X87726Y221604*
X88446Y221462*
X88919Y221377*
X89251Y221296*
X89518Y221195*
X89797Y221052*
X90069Y220863*
X90367Y220598*
X90641Y220304*
X90844Y220026*
X90976Y219733*
X91227Y219104*
X91579Y218189*
X92013Y217035*
X92424Y215940*
X92785Y214993*
X93056Y214295*
X93202Y213947*
X93446Y213549*
X93755Y213239*
X94142Y213004*
X94625Y212833*
X94946Y212746*
X111049*
X111380Y212835*
X112005Y213073*
X112501Y213416*
X112867Y213865*
X113102Y214420*
X113139Y214599*
X113161Y214864*
X113172Y215310*
X113174Y216034*
X113172Y216803*
X113161Y217246*
X113134Y217502*
X113084Y217706*
X112873Y218234*
X112545Y218652*
X111845Y219116*
X110872Y219345*
X110383Y219376*
X109330Y219430*
X107866Y219500*
X106147Y219579*
X104437Y219656*
X102999Y219722*
X101983Y219772*
X101541Y219796*
X99789Y220204*
X98196Y220996*
X96681Y222448*
X95839Y224300*
X95734Y224715*
Y238932*
X95735Y241554*
X95738Y243480*
X95744Y244827*
X95753Y245709*
X95766Y246239*
X95783Y246532*
X95807Y246703*
X96252Y248124*
X97021Y249219*
X98105Y249976*
X99494Y250387*
X99689Y250403*
X100089Y250416*
X100765Y250426*
X101795Y250433*
X103253Y250439*
X105215Y250442*
X107756Y250444*
X110950*
X114486Y250443*
X117183Y250442*
X119160Y250439*
X120535Y250433*
X121428Y250424*
X121954Y250411*
X122235Y250393*
X122387Y250370*
X123022Y250162*
X123513Y249829*
X123865Y249365*
X124087Y248761*
X124126Y248494*
X124148Y247907*
X124157Y246681*
X124159Y244499*
X124158Y240542*
X124070Y240228*
X123776Y239527*
X123331Y239022*
X122706Y238693*
X121875Y238517*
X121321Y238500*
X120036Y238487*
X118077Y238480*
X115506Y238476*
X113315*
X111689Y238474*
X110536Y238465*
X109761Y238448*
X109273Y238417*
X108978Y238370*
X108783Y238304*
X108596Y238213*
X108077Y237846*
X107692Y237350*
X107613Y237191*
X107553Y237039*
X107509Y236872*
X107480Y236667*
X107461Y236402*
X107452Y236056*
X107450Y235607*
X107454Y235033*
X107466Y233490*
X107613Y233193*
X107946Y232724*
X108430Y232349*
X109054Y232073*
X109809Y231903*
X110308Y231864*
X111451Y231787*
X113067Y231686*
X114986Y231568*
X116907Y231450*
X118532Y231347*
X119689Y231272*
X120205Y231233*
X121814Y230754*
X123188Y229782*
X124243Y228398*
X124893Y226684*
X124983Y226291*
X124996Y215739*
X124999Y211095*
X124995Y207713*
X124985Y205592*
X124969Y204733*
X124917Y204324*
X124850Y203978*
X124393Y202886*
X123641Y201993*
X122608Y201316*
X121313Y200868*
X120931Y200780*
X103411Y200768*
X99092Y200766*
X95420Y200765*
X92370Y200766*
X89913Y200768*
X88026Y200773*
X86681Y200779*
X85854Y200787*
X85518Y200798*
X84976Y200886*
X84547Y201021*
X84189Y201220*
X83864Y201503*
X83486Y201985*
X83213Y202614*
X83057Y203208*
X82702Y204626*
X82199Y206655*
X81602Y209083*
X81003Y211518*
X80494Y213567*
X80130Y215013*
X79965Y215643*
X79728Y216220*
X79432Y216658*
X79061Y216977*
X78598Y217195*
X78312Y217277*
X77983Y217336*
X77564Y217379*
X77013Y217411*
X76502Y217445*
X76131Y217496*
X75831Y217579*
X75537Y217706*
X75184Y217920*
X74900Y218185*
X74677Y218517*
X74503Y218924*
X74395Y219244*
Y222943*
X74397Y224970*
X74406Y226115*
X74426Y226663*
X74465Y226900*
X74673Y227437*
X74982Y227850*
X75409Y228152*
X75970Y228363*
X76181Y228409*
X76470Y228438*
X76951Y228459*
X77742Y228476*
X78646Y228498*
X79164Y228530*
X79468Y228595*
X79730Y228712*
X80308Y229176*
X80723Y229893*
X80842Y230256*
X80904Y230790*
X80927Y231844*
X80931Y233770*
X80930Y234881*
X80928Y235710*
X80920Y236306*
X80903Y236719*
X80874Y236996*
X80831Y237188*
X80769Y237343*
X80685Y237509*
X80526Y237749*
X80300Y237991*
X80038Y238206*
X79769Y238369*
X79580Y238456*
X79396Y238522*
X79172Y238569*
X78863Y238600*
X78422Y238620*
X77804Y238629*
X76964Y238633*
X72841*
X72831Y220670*
X72829Y217657*
X72827Y215000*
X72825Y212676*
X72823Y210662*
X72821Y208937*
X72819Y207475*
X72815Y206257*
X72811Y205258*
X72807Y204457*
X72802Y203831*
X72797Y203356*
X72790Y203011*
X72781Y202773*
X72772Y202618*
X72762Y202525*
X72751Y202471*
X72319Y201628*
X71607Y201077*
X71392Y200974*
X71202Y200898*
X70970Y200845*
X70630Y200811*
X70115Y200790*
X69358Y200780*
X68294Y200775*
X66856Y200772*
X64878Y200771*
X63636Y200777*
X62949Y200793*
X62637Y200820*
X126344Y196757D02*
X126685Y196878D01*
X127047Y197048*
X127389Y197246*
X127667Y197446*
X128226Y198053*
X128609Y198772*
X128650Y198863*
X128685Y198941*
X128715Y199054*
X128740Y199250*
X128761Y199577*
X128779Y200084*
X128793Y200820*
X128804Y201832*
X128811Y203170*
X128817Y204881*
X128821Y207014*
X128824Y209618*
X128824Y212740*
X128825Y216430*
Y225705*
X128824Y229894*
Y233616*
X128824Y236896*
X128823Y239763*
X128821Y242246*
X128820Y244371*
X128817Y246167*
X128814Y247661*
X128811Y248881*
X128806Y249855*
X128801Y250610*
X128795Y251175*
X128788Y251578*
X128780Y251846*
X128772Y252008*
X128762Y252089*
X128434Y252981*
X127869Y253736*
X127119Y254306*
X126231Y254639*
X126007Y254646*
X125422Y254654*
X124502Y254661*
X123272Y254667*
X121753Y254672*
X119970Y254677*
X117948Y254682*
X115710Y254686*
X113280Y254690*
X110683Y254693*
X107942Y254696*
X105081Y254698*
X102124Y254700*
X99096Y254701*
X96019Y254702*
X92919Y254702*
X89818Y254702*
X86741Y254701*
X83713Y254700*
X80755Y254698*
X77895Y254696*
X75154Y254693*
X72556Y254690*
X70126Y254686*
X67889Y254682*
X65867Y254677*
X64084Y254672*
X62565Y254667*
X61334Y254661*
X60415Y254654*
X59830Y254646*
X59606Y254639*
X58719Y254306*
X57968Y253736*
X57404Y252981*
X57076Y252089*
X57065Y252008*
X57056Y251846*
X57049Y251578*
X57042Y251175*
X57036Y250610*
X57031Y249855*
X57027Y248881*
X57023Y247661*
X57020Y246167*
X57018Y244371*
X57016Y242246*
X57015Y239763*
X57014Y236896*
X57013Y233616*
Y225705*
X57013Y220735*
Y216430*
X57013Y212740*
X57014Y209618*
X57017Y207014*
X57020Y204881*
X57026Y203170*
X57034Y201832*
X57045Y200820*
X57058Y200084*
X57076Y199577*
X57097Y199250*
X57122Y199054*
X57152Y198941*
X57187Y198863*
X57228Y198772*
X57623Y198035*
X58191Y197430*
X58898Y196984*
X59711Y196722*
X59824Y196715*
X60098Y196709*
X60552Y196702*
X61210Y196697*
X62093Y196693*
X63224Y196689*
X64625Y196686*
X66318Y196683*
X68325Y196681*
X70668Y196679*
X73370Y196678*
X76453Y196677*
X88209*
X93037Y196678*
X98673Y196679*
X103631Y196680*
X107953Y196681*
X111684Y196683*
X114869Y196685*
X117550Y196687*
X119772Y196690*
X121578Y196693*
X123013Y196697*
X124120Y196702*
X124944Y196709*
X125528Y196716*
X125916Y196724*
X126152Y196734*
X126280Y196745*
X126344Y196757*
X202608Y252750D02*
X232608D01*
Y287750*
X202608*
Y252750*
X247608D02*
X252608D01*
Y287750*
X247608*
Y252750*
X252608D02*
X287608D01*
Y257750*
X252608*
Y252750*
X267608Y237750D02*
X272608D01*
Y260250*
X267608*
Y237750*
X287608Y252750D02*
X292608D01*
Y287750*
X287608*
Y252750*
X307608D02*
X337608D01*
Y287750*
X307608*
Y252750*
D02*
D11*
X40600Y123124D02*
X5757D01*
Y79030*
X40600*
X52994Y65250D02*
X40600D01*
Y136904*
X53254*
X101482D02*
X62446D01*
X101919Y65250D02*
X62096D01*
X111198D02*
X135088D01*
Y136904*
X110761*
X407502Y137750D02*
X383612D01*
Y66096*
X407939*
X416781Y137750D02*
X456604D01*
X417218Y66096D02*
X456254D01*
X465706Y137750D02*
X478100D01*
Y66096*
X465446*
X478100Y79876D02*
X512943D01*
Y123970*
X478100*
D02*
D29*
X55287Y275250D02*
X51537D01*
Y272125*
Y270250D02*
X55287D01*
Y267125*
X53413Y267750D02*
Y270250D01*
X51537D02*
Y267125D01*
Y265250D02*
X55287D01*
Y263375*
X54975Y262750*
X54663Y262437*
X54037Y262125*
X52787*
X52163Y262437*
X51850Y262750*
X51537Y263375*
Y265250*
Y259625D02*
Y258375D01*
Y259000D02*
X55287D01*
X54663Y259625*
X53913Y160250D02*
Y162750D01*
X55163Y161500D02*
X52663D01*
X60600Y145250D02*
X65600D01*
X63100Y154250D02*
G75*
G02X47100Y170250J16000D01*
G01*
G75*
G02X63100Y186250I16000*
G01*
G75*
G02X79100Y170250J-16000*
G01*
G75*
G02X63100Y154250I-16000*
G01*
X65600Y140250D02*
Y150250D01*
X85600*
Y140250*
X65600*
X68100Y288750D02*
G75*
G03X57100Y277750J-11000D01*
G01*
G75*
G03X68100Y266750I11000*
G01*
G75*
G03X78400Y271050I-41J14583*
G01*
Y284450*
G75*
G03X68100Y288750I-10341J-10283*
G01*
X71850Y153687D02*
Y157437D01*
X74037*
X74663Y157125*
X74975Y156500*
X74663Y155875*
X74037Y155563*
X71850*
X74037D02*
X74975Y153687D01*
X79350D02*
X76850D01*
X79037Y155875*
X79350Y156500*
X79037Y157125*
X78413Y157437*
X77475*
X76850Y157125*
X84350Y153687D02*
X81850D01*
X84037Y155875*
X84350Y156500*
X84037Y157125*
X83413Y157437*
X82475*
X81850Y157125*
X81537Y183375D02*
X81850Y183063D01*
X82163Y182437*
Y181500*
X81850Y180875*
X81537Y180563*
X80913Y180250*
X79663*
X79037Y180563*
X78725Y180875*
X78413Y181500*
Y182437*
X78725Y183063*
X79037Y183375*
X82163Y185875D02*
Y187125D01*
Y186500D02*
X78413D01*
X79037Y185875*
X81850Y190563D02*
X82163Y191187D01*
Y191813*
X81850Y192437*
X81225Y192750*
X80600Y192437*
X80287Y191813*
Y191187*
Y191813D02*
X79975Y192437D01*
X79350Y192750*
X78725Y192437*
X78413Y191813*
Y191187*
X78725Y190563*
X83635Y99494D02*
X83323Y99807D01*
X82698Y100120*
X82073Y99807*
X81760Y99494*
Y96370*
X81135*
X81760D02*
X83010D01*
X77073Y100120D02*
Y96370D01*
X78635Y98870*
X76135*
X85600Y145250D02*
X90600D01*
X93100Y286187D02*
Y289937D01*
X96225Y286187*
Y289937*
X98100Y288687D02*
Y287125D01*
X98413Y286500*
X99037Y286187*
X99663*
X100287Y286500*
X100600Y287125*
Y288687D02*
Y286187D01*
X103725Y288687D02*
X104975D01*
X104350Y289313D02*
Y286500D01*
X104663Y286187*
X104975*
X105287Y286500*
X108100Y288687D02*
Y287125D01*
X108413Y286500*
X109037Y286187*
X109663*
X110287Y286500*
X110600Y287125*
Y288687D02*
Y286187D01*
X113100Y287125D02*
X113413Y286500D01*
X114037Y286187*
X114663*
X115287Y286500*
X115600Y287125*
Y287750*
X115287Y288375*
X114663Y288687*
X114037*
X113413Y288375*
X113100Y287750*
Y286187D02*
Y289937D01*
X120600Y286500D02*
X120287Y286187D01*
X119663*
X119037*
X118413Y286500*
X118100Y287125*
Y288063*
X118413Y288375*
X119037Y288687*
X119663*
X120287Y288375*
X120600Y288063*
Y287750*
X120287Y287437*
X119663Y287125*
X119037*
X118413Y287437*
X118100Y287750*
X128100Y286187D02*
Y289937D01*
X130287*
X130913Y289625*
X131225Y289000*
X130913Y288375*
X130287Y288063*
X128100*
X133100Y286187D02*
Y288687D01*
Y287750D02*
X133413Y288375D01*
X134037Y288687*
X134663*
X135287Y288375*
X140600Y286500D02*
X140287Y286187D01*
X139663*
X139037*
X138413Y286500*
X138100Y287125*
Y288063*
X138413Y288375*
X139037Y288687*
X139663*
X140287Y288375*
X140600Y288063*
Y287750*
X140287Y287437*
X139663Y287125*
X139037*
X138413Y287437*
X138100Y287750*
X143100Y288375D02*
X143725Y288687D01*
X144663*
X145287Y288375*
X145600Y287750*
Y286813*
X145287Y286500*
X144663Y286187*
X144037*
X143413Y286500*
X143100Y286813*
Y287125*
X143413Y287437*
X144037Y287750*
X144663*
X145287Y287437*
X145600Y287125*
Y286813D02*
Y286187D01*
X148100D02*
Y288687D01*
Y288375D02*
X148413Y288687D01*
X149037*
X149350Y288375*
Y287437*
Y288375D02*
X149663Y288687D01*
X150287*
X150600Y288375*
Y286187*
X153100Y288687D02*
Y285250D01*
Y287125D02*
X153413Y286500D01*
X154037Y286187*
X154663*
X155287Y286500*
X155600Y287125*
Y287750*
X155287Y288375*
X154663Y288687*
X154037*
X153413Y288375*
X153100Y287750*
Y287125*
X114100Y180250D02*
Y140250D01*
X119100Y180250D02*
X102100D01*
Y140250*
X119100*
Y180250*
X125287Y145250D02*
X126537D01*
X127163Y144937*
X127475Y144625*
X127787Y144000*
Y143375*
X127475Y142750*
X127163Y142437*
X126537Y142125*
X125287*
X124663Y142437*
X124350Y142750*
X124037Y143375*
Y144000*
X124350Y144625*
X124663Y144937*
X125287Y145250*
X124975Y143063D02*
X124037Y142125D01*
Y137750D02*
Y140250D01*
X126225Y138063*
X126850Y137750*
X127475Y138063*
X127787Y138687*
Y139625*
X127475Y140250*
X145600Y120250D02*
X155600D01*
Y100250*
X145600*
Y120250*
X150600Y100250D02*
Y95250D01*
Y125250D02*
Y120250D01*
X155600Y151187D02*
Y154937D01*
X157787*
X158413Y154625*
X158725Y154000*
X158413Y153375*
X157787Y153063*
X155600*
X157787D02*
X158725Y151187D01*
X161225D02*
X162475D01*
X161850D02*
Y154937D01*
X161225Y154313*
X166537Y153063D02*
X167163D01*
X167787Y153375*
X168100Y154000*
X167787Y154625*
X167163Y154937*
X166537*
X165913Y154625*
X165600Y154000*
X165913Y153375*
X166537Y153063*
X165913Y152750*
X165600Y152125*
X165913Y151500*
X166537Y151187*
X167163*
X167787Y151500*
X168100Y152125*
X167787Y152750*
X167163Y153063*
X155600Y163687D02*
Y167437D01*
X157787*
X158413Y167125*
X158725Y166500*
X158413Y165875*
X157787Y165563*
X155600*
X157787D02*
X158725Y163687D01*
X163100D02*
X160600D01*
X162787Y165875*
X163100Y166500*
X162787Y167125*
X162163Y167437*
X161225*
X160600Y167125*
X165913Y164000D02*
X166537Y163687D01*
X167163*
X167787Y164000*
X168100Y164625*
Y166500*
X167787Y167125*
X167163Y167437*
X166537*
X165913Y167125*
X165600Y166500*
Y164625*
X165913Y164000*
X167787Y167125*
X159037Y114000D02*
X162787D01*
Y111813*
X162475Y111187*
X161850Y110875*
X161225Y111187*
X160913Y111813*
Y114000*
Y111813D02*
X159037Y110875D01*
Y106500D02*
Y109000D01*
X161225Y106813*
X161850Y106500*
X162475Y106813*
X162787Y107437*
Y108375*
X162475Y109000*
X159350Y103687D02*
X159037Y103063D01*
Y102437*
X159350Y101813*
X159975Y101500*
X160600Y101813*
X160913Y102437*
Y103063*
Y102437D02*
X161225Y101813D01*
X161850Y101500*
X162475Y101813*
X162787Y102437*
Y103063*
X162475Y103687*
X165600Y10250D02*
Y250D01*
Y147750D02*
X170600D01*
X165600Y160250D02*
X170600D01*
Y142750D02*
Y152750D01*
X190600*
Y142750*
X170600*
Y155250D02*
Y165250D01*
X190600*
Y155250*
X170600*
Y172750D02*
X165600D01*
X168913Y197750D02*
Y200250D01*
X170163Y199000D02*
X167663D01*
X177787Y91750D02*
X179037D01*
X179663Y91437*
X179975Y91125*
X180287Y90500*
Y89875*
X179975Y89250*
X179663Y88937*
X179037Y88625*
X177787*
X177163Y88937*
X176850Y89250*
X176537Y89875*
Y90500*
X176850Y91125*
X177163Y91437*
X177787Y91750*
X177475Y89563D02*
X176537Y88625D01*
X176850Y86437D02*
X176537Y85813D01*
Y85187*
X176850Y84563*
X177475Y84250*
X178100Y84563*
X178413Y85187*
Y85813*
Y85187D02*
X178725Y84563D01*
X179350Y84250*
X179975Y84563*
X180287Y85187*
Y85813*
X179975Y86437*
X175600Y185250D02*
X170600D01*
X178100Y191750D02*
G75*
G02X162100Y207750J16000D01*
G01*
G75*
G02X178100Y223750I16000*
G01*
G75*
G02X194100Y207750J-16000*
G01*
G75*
G02X178100Y191750I-16000*
G01*
X179663Y241813D02*
X175913D01*
Y240250D02*
Y243375D01*
X177163Y245250D02*
X178725D01*
X179350Y245563*
X179663Y246187*
Y246813*
X179350Y247437*
X178725Y247750*
X177163D02*
X179663D01*
X178725Y250250D02*
X179350Y250563D01*
X179663Y251187*
Y251813*
X179350Y252437*
X178725Y252750*
X178100*
X177475Y252437*
X177163Y251813*
Y251187*
X177475Y250563*
X178100Y250250*
X179663D02*
X175913D01*
X179350Y257750D02*
X179663Y257437D01*
Y256813*
Y256187*
X179350Y255563*
X178725Y255250*
X177787*
X177475Y255563*
X177163Y256187*
Y256813*
X177475Y257437*
X177787Y257750*
X178100*
X178413Y257437*
X178725Y256813*
Y256187*
X178413Y255563*
X178100Y255250*
X179663Y260875D02*
Y262125D01*
Y261500D02*
X175913D01*
X176537Y260875*
X184100Y135250D02*
Y95250D01*
X185600Y10250D02*
Y250D01*
Y190250D02*
Y180250D01*
X175600*
Y190250*
X185600*
X190287Y87750D02*
X191225D01*
Y87437*
X190913Y86813*
X190600Y86500*
X189975Y86187*
X189350*
X188725Y86500*
X188413Y86813*
X188100Y87437*
Y88687*
X188413Y89313*
X188725Y89625*
X189350Y89937*
X189975*
X190600Y89625*
X190913Y89313*
X191225Y88687*
X193100Y86187D02*
X194663Y89937D01*
X196225Y86187*
X193725Y87750D02*
X195600D01*
X199037Y86187D02*
X200287D01*
X199663D02*
Y89937D01*
X199037D02*
X200287D01*
X203100Y86187D02*
Y89937D01*
X206225Y86187*
Y89937*
X191225Y189313D02*
X190913Y189000D01*
X190287Y188687*
X189350*
X188725Y189000*
X188413Y189313*
X188100Y189937*
Y191187*
X188413Y191813*
X188725Y192125*
X189350Y192437*
X190287*
X190913Y192125*
X191225Y191813*
X193725Y188687D02*
X194975D01*
X194350D02*
Y192437D01*
X193725Y191813*
X200600Y188687D02*
X198100D01*
X200287Y190875*
X200600Y191500*
X200287Y192125*
X199663Y192437*
X198725*
X198100Y192125*
X189100Y135250D02*
X172100D01*
Y95250*
X189100*
Y135250*
X189600Y40250D02*
Y10250D01*
X161600*
Y40250*
X190600Y147750D02*
X195600D01*
X190600Y160250D02*
X195600D01*
X190600Y177750D02*
Y167750D01*
X170600*
Y177750*
X190600*
Y185250D02*
X185600D01*
X193100Y138687D02*
Y142437D01*
X195287*
X195913Y142125*
X196225Y141500*
X195913Y140875*
X195287Y140563*
X193100*
X195287D02*
X196225Y138687D01*
X200600D02*
X198100D01*
X200287Y140875*
X200600Y141500*
X200287Y142125*
X199663Y142437*
X198725*
X198100Y142125*
X203725Y138687D02*
X204975D01*
X204350D02*
Y142437D01*
X203725Y141813*
X195600Y172750D02*
X190600D01*
X198100Y293687D02*
Y297437D01*
X199975*
X200600Y297125*
X200913Y296813*
X201225Y296187*
Y294937*
X200913Y294313*
X200600Y294000*
X199975Y293687*
X198100*
X205600Y294000D02*
X205287Y293687D01*
X204663*
X204037*
X203413Y294000*
X203100Y294625*
Y295563*
X203413Y295875*
X204037Y296187*
X204663*
X205287Y295875*
X205600Y295563*
Y295250*
X205287Y294937*
X204663Y294625*
X204037*
X203413Y294937*
X203100Y295250*
X208100Y294000D02*
X208725Y293687D01*
X209975*
X210600Y294000*
Y294625*
X209975Y294937*
X208725*
X208100Y295250*
Y295875*
X208725Y296187*
X209975*
X210600Y295875*
X214350Y293687D02*
Y296187D01*
Y297125D02*
X220600Y295250*
X220287Y295875D01*
X219663Y296187*
X219037*
X218413Y295875*
X218100Y295250*
Y294937*
X218413Y294313*
X219037Y294000*
X219663*
X220287Y294313*
X220600Y294937*
Y296187D02*
Y293687D01*
X220287Y293063*
X219663Y292750*
X218725*
X218100Y293063*
X223100Y293687D02*
Y296187D01*
Y295250D02*
X223413Y295875D01*
X224037Y296187*
X224663*
X225287Y295875*
X225600Y295250*
Y293687*
X230600Y294000D02*
X230287Y293687D01*
X229663*
X229037*
X228413Y294000*
X228100Y294625*
Y295563*
X228413Y295875*
X229037Y296187*
X229663*
X230287Y295875*
X230600Y295563*
Y295250*
X230287Y294937*
X229663Y294625*
X229037*
X228413Y294937*
X228100Y295250*
X235600D02*
X235287Y295875D01*
X234663Y296187*
X234037*
X233413Y295875*
X233100Y295250*
Y294625*
X233413Y294000*
X234037Y293687*
X234663*
X235287Y294000*
X235600Y294625*
Y293687D02*
Y297437D01*
X244350Y293687D02*
Y296187D01*
Y297125D02*
X248100Y293687*
Y296187D01*
Y295250D02*
X248413Y295875D01*
X249037Y296187*
X249663*
X250287Y295875*
X250600Y295250*
Y293687*
X258100D02*
Y297437D01*
X259975*
X260600Y297125*
X260913Y296813*
X261225Y296187*
Y294937*
X260913Y294313*
X260600Y294000*
X259975Y293687*
X258100*
X265600Y294000D02*
X265287Y293687D01*
X264663*
X264037*
X263413Y294000*
X263100Y294625*
Y295563*
X263413Y295875*
X264037Y296187*
X264663*
X265287Y295875*
X265600Y295563*
Y295250*
X265287Y294937*
X264663Y294625*
X264037*
X263413Y294937*
X263100Y295250*
X268100Y294000D02*
X268725Y293687D01*
X269975*
X270600Y294000*
Y294625*
X269975Y294937*
X268725*
X268100Y295250*
Y295875*
X268725Y296187*
X269975*
X270600Y295875*
X274350Y293687D02*
Y296187D01*
Y297125D02*
X280600Y295250*
X280287Y295875D01*
X279663Y296187*
X279037*
X278413Y295875*
X278100Y295250*
Y294937*
X278413Y294313*
X279037Y294000*
X279663*
X280287Y294313*
X280600Y294937*
Y296187D02*
Y293687D01*
X280287Y293063*
X279663Y292750*
X278725*
X278100Y293063*
X283100Y293687D02*
Y296187D01*
Y295250D02*
X283413Y295875D01*
X284037Y296187*
X284663*
X285287Y295875*
X285600Y295250*
Y293687*
X288100Y294625D02*
X288413Y294000D01*
X289037Y293687*
X290287*
X290913Y294000*
X291225Y294625*
X290913Y295250*
X290287Y295563*
X289037*
X288413Y295875*
X288100Y296500*
X288413Y297125*
X289037Y297437*
X290287*
X290913Y297125*
X291225Y296500*
X293100Y296187D02*
Y292750D01*
Y294625D02*
X293413Y294000D01*
X294037Y293687*
X294663*
X295287Y294000*
X295600Y294625*
Y295250*
X295287Y295875*
X294663Y296187*
X294037*
X293413Y295875*
X293100Y295250*
Y294625*
X298100Y295875D02*
X298725Y296187D01*
X299663*
X300287Y295875*
X300600Y295250*
Y294313*
X300287Y294000*
X299663Y293687*
X299037*
X298413Y294000*
X298100Y294313*
Y294625*
X298413Y294937*
X299037Y295250*
X299663*
X300287Y294937*
X300600Y294625*
Y294313D02*
Y293687D01*
X303100D02*
Y296187D01*
Y295250D02*
X303413Y295875D01*
X304037Y296187*
X304663*
X305287Y295875*
X308100Y293687D02*
Y297437D01*
Y294937D02*
X309037D01*
X310600Y296187*
X309037Y294937D02*
X310600Y293687D01*
X318100D02*
Y297437D01*
X320287*
X320913Y297125*
X321225Y296500*
X320913Y295875*
X320287Y295563*
X318100*
X326225Y294313D02*
X325913Y294000D01*
X325287Y293687*
X324350*
X323725Y294000*
X323413Y294313*
X323100Y294937*
Y296187*
X323413Y296813*
X323725Y297125*
X324350Y297437*
X325287*
X325913Y297125*
X326225Y296813*
X330287Y295563D02*
X330913Y295250D01*
X331225Y294625*
X330913Y294000*
X330287Y293687*
X328100*
Y297437*
X330287*
X330913Y297125*
X331225Y296500*
X330913Y295875*
X330287Y295563*
X328100*
X199037Y205875D02*
X199350Y205563D01*
X199663Y204937*
Y204000*
X199350Y203375*
X199037Y203063*
X198413Y202750*
X197163*
X196537Y203063*
X196225Y203375*
X195913Y204000*
Y204937*
X196225Y205563*
X196537Y205875*
X199663Y208375D02*
Y209625D01*
Y209000D02*
X195913D01*
X196537Y208375*
X199663Y213375D02*
Y214625D01*
Y214000D02*
X195913D01*
X196537Y213375*
X202352Y236687D02*
X338848D01*
Y223813*
X204852*
X202352Y226313*
Y236687*
X208725Y134313D02*
X208413Y134000D01*
X207787Y133687*
X206850*
X206225Y134000*
X205913Y134313*
X205600Y134937*
Y136187*
X205913Y136813*
X206225Y137125*
X206850Y137437*
X207787*
X208413Y137125*
X208725Y136813*
X210600Y133687D02*
X213100Y137437D01*
X210600*
X205600Y200250D02*
X215600D01*
Y180250*
X205600*
Y200250*
X209600Y117750D02*
G75*
G02X225600Y133750I16000D01*
G01*
G75*
G02X241600Y117750J-16000*
G01*
G75*
G02X225600Y101750I-16000*
G01*
G75*
G02X209600Y117750J16000*
G01*
Y150250D02*
G75*
G02X225600Y166250I16000D01*
G01*
G75*
G02X241600Y150250J-16000*
G01*
G75*
G02X225600Y134250I-16000*
G01*
G75*
G02X209600Y150250J16000*
G01*
X210600Y45250D02*
X195600D01*
Y40250*
X155600*
Y45250*
X140600*
Y82750*
X210600*
Y45250*
Y180250D02*
Y175250D01*
Y205250D02*
Y200250D01*
X214037Y177750D02*
X217787D01*
Y175563*
X217475Y174937*
X216850Y174625*
X216225Y174937*
X215913Y175563*
Y177750*
Y175563D02*
X214037Y174625D01*
Y172125D02*
Y170875D01*
Y171500D02*
X217787D01*
X217163Y172125*
X215600Y126937D02*
X218100D01*
X216850Y125687D02*
Y128187D01*
X215600Y159437D02*
X218100D01*
X216850Y158187D02*
Y160687D01*
X217163Y62750D02*
X213413D01*
Y64937*
X213725Y65563*
X214350Y65875*
X214975Y65563*
X215287Y64937*
Y62750*
Y64937D02*
X217163Y65875D01*
Y68375D02*
Y69625D01*
Y69000D02*
X213413D01*
X214037Y68375*
X216850Y73063D02*
X217163Y73687D01*
Y74313*
X216850Y74937*
X216225Y75250*
X214350*
X213725Y74937*
X213413Y74313*
Y73687*
X213725Y73063*
X214350Y72750*
X216225*
X216850Y73063*
X213725Y74937*
X223100Y175250D02*
Y180250D01*
Y200250D02*
Y205250D01*
X226537Y177750D02*
X230287D01*
Y175563*
X229975Y174937*
X229350Y174625*
X228725Y174937*
X228413Y175563*
Y177750*
Y175563D02*
X226537Y174625D01*
Y171813D02*
X226850Y171187D01*
X227475Y170563*
X228413Y170250*
X229350*
X229975Y170563*
X230287Y171187*
Y171813*
X229975Y172437*
X229350Y172750*
X228725Y172437*
X228413Y171813*
Y171187*
X228725Y170563*
X229350Y170250*
X228100Y180250D02*
X218100D01*
Y200250*
X228100*
Y180250*
X230600Y200250D02*
X240600D01*
Y180250*
X230600*
Y200250*
X234663Y86187D02*
Y89937D01*
X233100D02*
X236225D01*
X238100Y87125D02*
X238413Y86500D01*
X239037Y86187*
X239663*
X240287Y86500*
X240600Y87125*
Y87750*
X240287Y88375*
X239663Y88687*
X239037*
X238413Y88375*
X238100Y87750*
Y87125*
X243100Y86187D02*
Y88687D01*
Y87750D02*
X243413Y88375D01*
X244037Y88687*
X244663*
X245287Y88375*
X245600Y87750*
Y86187*
X250600Y86500D02*
X250287Y86187D01*
X249663*
X249037*
X248413Y86500*
X248100Y87125*
Y88063*
X248413Y88375*
X249037Y88687*
X249663*
X250287Y88375*
X250600Y88063*
Y87750*
X250287Y87437*
X249663Y87125*
X249037*
X248413Y87437*
X248100Y87750*
X238725Y99313D02*
X238413Y99000D01*
X237787Y98687*
X236850*
X236225Y99000*
X235913Y99313*
X235600Y99937*
Y101187*
X235913Y101813*
X236225Y102125*
X236850Y102437*
X237787*
X238413Y102125*
X238725Y101813*
X241225Y98687D02*
X242475D01*
X241850D02*
Y102437D01*
X241225Y101813*
X235600Y180250D02*
Y175250D01*
Y205250D02*
Y200250D01*
X239037Y177750D02*
X242787D01*
Y175563*
X242475Y174937*
X241850Y174625*
X241225Y174937*
X240913Y175563*
Y177750*
Y175563D02*
X239037Y174625D01*
Y171187D02*
X242787D01*
X240287Y172750*
Y170250*
X240600Y143687D02*
Y147437D01*
X242787*
X243413Y147125*
X243725Y146500*
X243413Y145875*
X242787Y145563*
X240600*
X242787D02*
X243725Y143687D01*
X246225D02*
X247475D01*
X246850D02*
Y147437D01*
X246225Y146813*
X251537Y143687D02*
X252163Y144000D01*
X252787Y144625*
X253100Y145563*
Y146500*
X252787Y147125*
X252163Y147437*
X251537*
X250913Y147125*
X250600Y146500*
X250913Y145875*
X251537Y145563*
X252163*
X252787Y145875*
X253100Y146500*
X243100Y10250D02*
Y250D01*
X248100Y200250D02*
X258100D01*
Y180250*
X248100*
Y200250*
X250600Y137750D02*
X255600D01*
X253100Y93687D02*
Y97437D01*
X255287*
X255913Y97125*
X256225Y96500*
X255913Y95875*
X255287Y95563*
X253100*
X255287D02*
X256225Y93687D01*
X258413Y94000D02*
X259037Y93687D01*
X259663*
X260287Y94000*
X260600Y94625*
X260287Y95250*
X259663Y95563*
X259037*
X259663D02*
X260287Y95875D01*
X260600Y96500*
X260287Y97125*
X259663Y97437*
X259037*
X258413Y97125*
X253100Y180250D02*
Y175250D01*
Y205250D02*
Y200250D01*
X255600Y132750D02*
Y142750D01*
X275600*
Y132750*
X255600*
X263100Y10250D02*
Y250D01*
Y115250D02*
Y130250D01*
X303100*
Y125250*
X261537Y203375D02*
X261850Y203063D01*
X262163Y202437*
Y201500*
X261850Y200875*
X261537Y200563*
X260913Y200250*
X259663*
X259037Y200563*
X258725Y200875*
X258413Y201500*
Y202437*
X258725Y203063*
X259037Y203375*
X261850Y205563D02*
X262163Y206187D01*
Y206813*
X261850Y207437*
X261225Y207750*
X260600Y207437*
X260287Y206813*
Y206187*
Y206813D02*
X259975Y207437D01*
X259350Y207750*
X258725Y207437*
X258413Y206813*
Y206187*
X258725Y205563*
X265600Y182750D02*
Y187750D01*
Y197750D02*
Y202750D01*
X267100Y40250D02*
Y10250D01*
X239100*
Y40250*
X268100Y160250D02*
X263100D01*
X270600Y187750D02*
X260600D01*
Y197750*
X270600*
Y187750*
X273100Y200250D02*
X283100D01*
Y180250*
X273100*
Y200250*
X275600Y137750D02*
X280600D01*
X278100Y147750D02*
X273100D01*
X278100Y180250D02*
Y175250D01*
Y205250D02*
Y200250D01*
X285600D02*
X295600D01*
Y180250*
X285600*
Y200250*
X288100Y45250D02*
X273100D01*
Y40250*
X233100*
Y45250*
X218100*
Y82750*
X288100*
Y45250*
X289037Y60250D02*
X292787D01*
Y58063*
X292475Y57437*
X291850Y57125*
X291225Y57437*
X290913Y58063*
Y60250*
Y58063D02*
X289037Y57125D01*
Y54625D02*
Y53375D01*
Y54000D02*
X292787D01*
X292163Y54625*
X289037Y48687D02*
X292787D01*
X290287Y50250*
Y47750*
X288100Y152750D02*
Y142750D01*
X278100*
Y152750*
X288100*
Y165250D02*
Y155250D01*
X268100*
Y165250*
X288100*
X290600Y180250D02*
Y175250D01*
Y205250D02*
Y200250D01*
X293100Y147750D02*
X288100D01*
X293100Y160250D02*
X288100D01*
X299037Y194000D02*
X302787D01*
Y191813*
X302475Y191187*
X301850Y190875*
X301225Y191187*
X300913Y191813*
Y194000*
Y191813D02*
X299037Y190875D01*
Y186500D02*
Y189000D01*
X301225Y186813*
X301850Y186500*
X302475Y186813*
X302787Y187437*
Y188375*
X302475Y189000*
X299037Y182437D02*
X302787D01*
X300287Y184000*
Y181500*
X298100Y200250D02*
X308100D01*
Y180250*
X298100*
Y200250*
X302163Y137125D02*
X301850Y137437D01*
X301537Y138063*
Y139000*
X301850Y139625*
X302163Y139937*
X302787Y140250*
X304037*
X304663Y139937*
X304975Y139625*
X305287Y139000*
Y138063*
X304975Y137437*
X304663Y137125*
X301537Y134313D02*
X301850Y133687D01*
X302475Y133063*
X303413Y132750*
X304350*
X304975Y133063*
X305287Y133687*
Y134313*
X304975Y134937*
X304350Y135250*
X303725Y134937*
X303413Y134313*
Y133687*
X303725Y133063*
X304350Y132750*
X303100Y95250D02*
Y90250D01*
X263100*
Y105250*
X303100D02*
Y115250D01*
Y156813D02*
Y153063D01*
X300913*
X300287Y153375*
X299975Y154000*
X300287Y154625*
X300913Y154937*
X303100*
X300913D02*
X299975Y156813D01*
X297475D02*
X296225D01*
X296850D02*
Y153063D01*
X297475Y153687*
X293100Y155875D02*
X292787Y155250D01*
X292163Y154937*
X291537*
X290913Y155250*
X290600Y155875*
X290913Y156500*
X291537Y156813*
X292163*
X292787Y156500*
X293100Y155875*
Y154937*
X292787Y154000*
X292163Y153375*
X291537Y153063*
X303100Y180250D02*
Y175250D01*
Y205250D02*
Y200250D01*
X306537Y177750D02*
X310287D01*
Y175563*
X309975Y174937*
X309350Y174625*
X308725Y174937*
X308413Y175563*
Y177750*
Y175563D02*
X306537Y174625D01*
X307475Y172750D02*
X308100Y172437D01*
X308413Y171813*
Y171187*
X308100Y170563*
X307475Y170250*
X306850Y170563*
X306537Y171187*
Y171813*
X306850Y172437*
X307475Y172750*
X308413*
X309350Y172437*
X309975Y171813*
X310287Y171187*
X309600Y170250D02*
X326600D01*
Y210250*
X309600*
Y170250*
X314600D02*
Y210250D01*
X315600Y89937D02*
X317163Y86187D01*
X318725Y89937*
X320600Y87125D02*
X320913Y86500D01*
X321537Y86187*
X322163*
X322787Y86500*
X323100Y87125*
Y87750*
X322787Y88375*
X322163Y88687*
X321537*
X320913Y88375*
X320600Y87750*
Y87125*
X327163Y86187D02*
X326850D01*
Y89937*
X318100Y115250D02*
Y130250D01*
X358100*
Y125250*
X320600Y10250D02*
Y250D01*
Y166250D02*
G75*
G02X336600Y150250J-16000D01*
G01*
G75*
G02X320600Y134250I-16000*
G01*
G75*
G02X304600Y150250J16000*
G01*
G75*
G02X320600Y166250I16000*
G01*
X320913Y213750D02*
X319663D01*
X319037Y214063*
X318725Y214375*
X318413Y215000*
Y215625*
X318725Y216250*
X319037Y216563*
X319663Y216875*
X320913*
X321537Y216563*
X321850Y216250*
X322163Y215625*
Y215000*
X321850Y214375*
X321537Y214063*
X320913Y213750*
X321225Y215937D02*
X322163Y216875D01*
Y219375D02*
Y220625D01*
Y220000D02*
X318413D01*
X319037Y219375*
X329787Y160250D02*
Y157750D01*
X328537Y159000D02*
X331037D01*
X333100Y200250D02*
X343100D01*
Y180250*
X333100*
Y200250*
X338100Y180250D02*
Y175250D01*
Y205250D02*
Y200250D01*
X340600Y10250D02*
Y250D01*
X341537Y167750D02*
X345287D01*
Y165563*
X344975Y164937*
X344350Y164625*
X343725Y164937*
X343413Y165563*
Y167750*
Y165563D02*
X341537Y164625D01*
Y162125D02*
Y160875D01*
Y161500D02*
X345287D01*
X344663Y162125*
X341537Y157750D02*
X345287Y155250D01*
Y157750*
X344600Y40250D02*
Y10250D01*
X316600*
Y40250*
X345600Y136813D02*
Y133063D01*
X343413*
X342787Y133375*
X342475Y134000*
X342787Y134625*
X343413Y134937*
X345600*
X343413D02*
X342475Y136813D01*
X340600Y136500D02*
X339975Y136813D01*
X339037*
X338413Y136500*
X338100Y135875*
Y135563*
X338413Y134937*
X339037Y134625*
X340600*
Y133063*
X338100*
X345600Y197750D02*
X355600D01*
Y177750*
X345600*
Y197750*
X350600Y177750D02*
Y172750D01*
Y202750D02*
Y197750D01*
X354037Y172750D02*
X357787D01*
Y170563*
X357475Y169937*
X356850Y169625*
X356225Y169937*
X355913Y170563*
Y172750*
Y170563D02*
X354037Y169625D01*
Y165250D02*
Y167750D01*
X356225Y165563*
X356850Y165250*
X357475Y165563*
X357787Y166187*
Y167125*
X357475Y167750*
X353913Y137750D02*
Y140250D01*
X355163Y139000D02*
X352663D01*
X358100Y95250D02*
Y90250D01*
X318100*
Y105250*
X358100D02*
Y115250D01*
X359663Y199625D02*
X359350Y199937D01*
X359037Y200563*
Y201500*
X359350Y202125*
X359663Y202437*
X360287Y202750*
X361537*
X362163Y202437*
X362475Y202125*
X362787Y201500*
Y200563*
X362475Y199937*
X362163Y199625*
X359350Y197750D02*
X359037Y197125D01*
Y196187*
X359350Y195563*
X359975Y195250*
X360287*
X360913Y195563*
X361225Y196187*
Y197750*
X362787*
Y195250*
X363100Y131750D02*
G75*
G02X347100Y147750J16000D01*
G01*
G75*
G02X363100Y163750I16000*
G01*
G75*
G02X379100Y147750J-16000*
G01*
G75*
G02X363100Y131750I-16000*
G01*
X365600Y45250D02*
X350600D01*
Y40250*
X310600*
Y45250*
X295600*
Y82750*
X365600*
Y45250*
X369037Y57750D02*
X372787D01*
Y55563*
X372475Y54937*
X371850Y54625*
X371225Y54937*
X370913Y55563*
Y57750*
Y55563D02*
X369037Y54625D01*
Y52125D02*
Y50875D01*
Y51500D02*
X372787D01*
X372163Y52125*
X369350Y47437D02*
X369037Y46813D01*
Y46187*
X369350Y45563*
X369975Y45250*
X370600Y45563*
X370913Y46187*
Y46813*
Y46187D02*
X371225Y45563D01*
X371850Y45250*
X372475Y45563*
X372787Y46187*
Y46813*
X372475Y47437*
X369663Y85250D02*
X365913D01*
Y87437*
X366225Y88063*
X366850Y88375*
X367475Y88063*
X367787Y87437*
Y85250*
Y87437D02*
X369663Y88375D01*
Y90875D02*
Y92125D01*
Y91500D02*
X365913D01*
X366537Y90875*
X369350Y95250D02*
X369663Y95875D01*
Y96813*
X369350Y97437*
X368725Y97750*
X368413*
X367787Y97437*
X367475Y96813*
Y95250*
X365913*
Y97750*
Y252750D02*
X369663D01*
Y255875*
Y258375D02*
Y259625D01*
Y259000D02*
X365913D01*
X366537Y258375*
X375600Y77750D02*
Y82750D01*
Y102750D02*
Y107750D01*
X378100Y228750D02*
G75*
G02X394100Y212750J-16000D01*
G01*
G75*
G02X378100Y196750I-16000*
G01*
G75*
G02X362100Y212750J16000*
G01*
G75*
G02X378100Y228750I16000*
G01*
X380600Y82750D02*
X370600D01*
Y102750*
X380600*
Y82750*
X381537Y160875D02*
X381850Y160563D01*
X382163Y159937*
Y159000*
X381850Y158375*
X381537Y158063*
X380913Y157750*
X379663*
X379037Y158063*
X378725Y158375*
X378413Y159000*
Y159937*
X378725Y160563*
X379037Y160875*
X382163Y164313D02*
X378413D01*
X380913Y162750*
Y165250*
X384600Y282750D02*
G75*
G02X400600Y298750I16000D01*
G01*
G75*
G02X416600Y282750J-16000*
G01*
G75*
G02X400600Y266750I-16000*
G01*
G75*
G02X384600Y282750J16000*
G01*
X387287Y222750D02*
Y220250D01*
X386037Y221500D02*
X388537D01*
X390600Y291937D02*
X393100D01*
X391850Y290687D02*
Y293187D01*
X395600Y147750D02*
X400600D01*
X397163Y191813D02*
X395913D01*
X396537D02*
Y188063D01*
X397163D02*
X395913D01*
X389975Y191187D02*
X390287Y191500D01*
X390913Y191813*
X391850*
X392475Y191500*
X392787Y191187*
X393100Y190563*
Y189313*
X392787Y188687*
X392475Y188375*
X391850Y188063*
X390913*
X390287Y188375*
X389975Y188687*
X387475Y191813D02*
X386225D01*
X386850D02*
Y188063D01*
X387475Y188687*
X398100Y237750D02*
X403100D01*
X400600Y142750D02*
Y152750D01*
X420600*
Y142750*
X400600*
X403100Y232750D02*
Y242750D01*
X413100*
Y232750*
X403100*
X407475Y246813D02*
X407163Y246500D01*
X406537Y246187*
X405600*
X404975Y246500*
X404663Y246813*
X404350Y247437*
Y248687*
X404663Y249313*
X404975Y249625*
X405600Y249937*
X406537*
X407163Y249625*
X407475Y249313*
X410287Y248063D02*
X410913D01*
X411537Y248375*
X411850Y249000*
X411537Y249625*
X410913Y249937*
X410287*
X409663Y249625*
X409350Y249000*
X409663Y248375*
X410287Y248063*
X409663Y247750*
X409350Y247125*
X409663Y246500*
X410287Y246187*
X410913*
X411537Y246500*
X411850Y247125*
X411537Y247750*
X410913Y248063*
X406850Y156187D02*
Y159937D01*
X409037*
X409663Y159625*
X409975Y159000*
X409663Y158375*
X409037Y158063*
X406850*
X409037D02*
X409975Y156187D01*
X412787Y158063D02*
X413413D01*
X414037Y158375*
X414350Y159000*
X414037Y159625*
X413413Y159937*
X412787*
X412163Y159625*
X411850Y159000*
X412163Y158375*
X412787Y158063*
X412163Y157750*
X411850Y157125*
X412163Y156500*
X412787Y156187*
X413413*
X414037Y156500*
X414350Y157125*
X414037Y157750*
X413413Y158063*
X413725Y264313D02*
X413413Y264000D01*
X412787Y263687*
X411850*
X411225Y264000*
X410913Y264313*
X410600Y264937*
Y266187*
X410913Y266813*
X411225Y267125*
X411850Y267437*
X412787*
X413413Y267125*
X413725Y266813*
X418100Y263687D02*
X415600D01*
X417787Y265875*
X418100Y266500*
X417787Y267125*
X417163Y267437*
X416225*
X415600Y267125*
X413100Y237750D02*
X418100D01*
X414663Y199000D02*
X410913D01*
Y201187*
X411225Y201813*
X411850Y202125*
X412475Y201813*
X412787Y201187*
Y199000*
Y201187D02*
X414663Y202125D01*
Y204000D02*
X410913Y206500D01*
Y204000*
X420600Y147750D02*
X425600D01*
X423100Y187750D02*
Y192750D01*
Y212750D02*
Y217750D01*
X428100Y192750D02*
X418100D01*
Y212750*
X428100*
Y192750*
X435600Y175250D02*
X445600D01*
Y165250*
X435600*
Y175250*
X440600Y165250D02*
Y160250D01*
Y180250D02*
Y175250D01*
X446537Y215250D02*
X450287D01*
Y213375*
X449975Y212750*
X449663Y212437*
X449037Y212125*
X447787*
X447163Y212437*
X446850Y212750*
X446537Y213375*
Y215250*
Y209625D02*
Y208375D01*
Y209000D02*
X450287D01*
X449663Y209625*
Y170875D02*
X449350Y171187D01*
X449037Y171813*
Y172750*
X449350Y173375*
X449663Y173687*
X450287Y174000*
X451537*
X452163Y173687*
X452475Y173375*
X452787Y172750*
Y171813*
X452475Y171187*
X452163Y170875*
X449975Y169000D02*
X450600Y168687D01*
X450913Y168063*
Y167437*
X450600Y166813*
X449975Y166500*
X449350Y166813*
X449037Y167437*
Y168063*
X449350Y168687*
X449975Y169000*
X450913*
X451850Y168687*
X452475Y168063*
X452787Y167437*
X448100Y253687D02*
X447787Y254000D01*
X447163Y254313*
X446537Y254000*
X446225Y253687*
Y250563*
X445600*
X446225D02*
X447475D01*
X442475Y254313D02*
X441225D01*
X441850D02*
Y250563D01*
X442475Y251187*
X465600Y141813D02*
X465913Y141500D01*
X466537Y141187*
X467163Y141500*
X467475Y141813*
Y144937*
X468100*
X467475D02*
X466225D01*
X473100Y141187D02*
X470600D01*
X472787Y143375*
X473100Y144000*
X472787Y144625*
X472163Y144937*
X471225*
X470600Y144625*
D02*
D72*
X182608Y237750D02*
X360108D01*
Y300250*
X182608*
Y237750*
X367352Y185644D02*
Y167140D01*
X408848*
Y180250*
X463100Y195238D02*
Y182062D01*
X473336Y218020D02*
X463100Y228256D01*
Y242587*
X473336Y228256D02*
Y195382D01*
X452864*
Y228256*
X473336*
D02*
D73*
X421013Y280675D02*
Y292967D01*
X430013*
X441171D02*
X478100D01*
Y257533*
X421013*
Y269825*
D02*
D74*
X378100Y242750D02*
Y247750D01*
Y267750D02*
Y272750D01*
X383100Y247750D02*
X373100D01*
Y267750*
X383100*
Y247750*
X0Y0D02*
M02*
